AntonFLab.ufo
<glyph name="exclam" format="1">
  <advance width="487"/>
  <unicode hex="0021"/>
  <outline>
    <contour>
      <point x="65" y="1593" type="line"/>
      <point x="423" y="1593" type="line"/>
      <point x="353" y="439" type="line"/>
      <point x="135" y="439" type="line"/>
    </contour>
    <contour>
      <point x="65" y="1" type="line"/>
      <point x="423" y="1" type="line"/>
      <point x="423" y="299" type="line"/>
      <point x="65" y="299" type="line"/>
    </contour>
  </outline>
</glyph>
<glyph name="quotedbl" format="1">
  <advance width="901"/>
  <unicode hex="0022"/>
  <outline>
    <contour>
      <point x="329" y="957" type="line"/>
      <point x="405" y="1593" type="line"/>
      <point x="53" y="1593" type="line"/>
      <point x="153" y="957" type="line"/>
    </contour>
    <contour>
      <point x="769" y="957" type="line"/>
      <point x="845" y="1593" type="line"/>
      <point x="493" y="1593" type="line"/>
      <point x="593" y="957" type="line"/>
    </contour>
  </outline>
</glyph>
<glyph name="numbersign" format="1">
  <advance width="1130"/>
  <unicode hex="0023"/>
  <outline>
    <contour>
      <point x="105" y="886" type="line"/>
      <point x="215" y="886" type="line"/>
      <point x="187" y="741" type="line"/>
      <point x="47" y="741" type="line"/>
      <point x="47" y="509" type="line"/>
      <point x="142" y="509" type="line"/>
      <point x="43" y="0" type="line"/>
      <point x="326" y="0" type="line"/>
      <point x="425" y="509" type="line"/>
      <point x="592" y="509" type="line"/>
      <point x="493" y="0" type="line"/>
      <point x="776" y="0" type="line"/>
      <point x="875" y="509" type="line"/>
      <point x="1029" y="509" type="line"/>
      <point x="1029" y="741" type="line"/>
      <point x="921" y="741" type="line"/>
      <point x="949" y="886" type="line"/>
      <point x="1087" y="886" type="line"/>
      <point x="1087" y="1118" type="line"/>
      <point x="994" y="1118" type="line"/>
      <point x="1087" y="1593" type="line"/>
      <point x="803" y="1593" type="line"/>
      <point x="710" y="1118" type="line"/>
      <point x="544" y="1118" type="line"/>
      <point x="637" y="1593" type="line"/>
      <point x="353" y="1593" type="line"/>
      <point x="260" y="1118" type="line"/>
      <point x="105" y="1118" type="line"/>
    </contour>
    <contour>
      <point x="499" y="886" type="line"/>
      <point x="665" y="886" type="line"/>
      <point x="637" y="741" type="line"/>
      <point x="471" y="741" type="line"/>
    </contour>
  </outline>
</glyph>
<glyph name="dollar" format="1">
  <advance width="949"/>
  <unicode hex="0024"/>
  <outline>
    <contour>
      <point x="386" y="-113" type="line"/>
      <point x="559" y="-113" type="line"/>
      <point x="559" y="34" type="line"/>
      <point x="792" y="61"/>
      <point x="913" y="228"/>
      <point x="913" y="413" type="curve" smooth="yes"/>
      <point x="913" y="532"/>
      <point x="863" y="658"/>
      <point x="762" y="758" type="curve" smooth="yes"/>
      <point x="482" y="1034" type="line" smooth="yes"/>
      <point x="401" y="1114"/>
      <point x="383" y="1156"/>
      <point x="383" y="1182" type="curve" smooth="yes"/>
      <point x="383" y="1229"/>
      <point x="422" y="1259"/>
      <point x="467" y="1259" type="curve" smooth="yes"/>
      <point x="508" y="1259"/>
      <point x="546" y="1227"/>
      <point x="549" y="1190" type="curve"/>
      <point x="551" y="1105" type="line"/>
      <point x="908" y="1105" type="line"/>
      <point x="908" y="1378"/>
      <point x="777" y="1533"/>
      <point x="559" y="1561" type="curve"/>
      <point x="559" y="1679" type="line"/>
      <point x="386" y="1679" type="line"/>
      <point x="386" y="1558" type="line"/>
      <point x="179" y="1521"/>
      <point x="54" y="1369"/>
      <point x="54" y="1192" type="curve" smooth="yes"/>
      <point x="54" y="1080"/>
      <point x="103" y="958"/>
      <point x="212" y="849" type="curve" smooth="yes"/>
      <point x="500" y="560" type="line"/>
      <point x="538" y="518"/>
      <point x="562" y="482"/>
      <point x="562" y="456" type="curve" smooth="yes"/>
      <point x="562" y="392"/>
      <point x="531" y="347"/>
      <point x="478" y="347" type="curve" smooth="yes"/>
      <point x="391" y="347"/>
      <point x="384" y="447"/>
      <point x="384" y="501" type="curve" smooth="yes"/>
      <point x="384" y="543" type="line"/>
      <point x="36" y="543" type="line"/>
      <point x="36" y="488" type="line" smooth="yes"/>
      <point x="36" y="218"/>
      <point x="129" y="66"/>
      <point x="386" y="36" type="curve"/>
    </contour>
  </outline>
</glyph>
<glyph name="percent" format="1">
  <advance width="2164"/>
  <unicode hex="0025"/>
  <outline>
    <contour>
      <point x="1729" y="-18" type="curve" smooth="yes"/>
      <point x="1537" y="-18"/>
      <point x="1338" y="99"/>
      <point x="1338" y="402" type="curve" smooth="yes"/>
      <point x="1338" y="765" type="line" smooth="yes"/>
      <point x="1338" y="1047"/>
      <point x="1477" y="1183"/>
      <point x="1729" y="1183" type="curve" smooth="yes"/>
      <point x="1981" y="1183"/>
      <point x="2121" y="1047"/>
      <point x="2121" y="765" type="curve" smooth="yes"/>
      <point x="2121" y="402" type="line" smooth="yes"/>
      <point x="2121" y="99"/>
      <point x="1922" y="-18"/>
    </contour>
    <contour>
      <point x="1729" y="244" type="curve" smooth="yes"/>
      <point x="1768" y="244"/>
      <point x="1822" y="274"/>
      <point x="1822" y="343" type="curve" smooth="yes"/>
      <point x="1822" y="829" type="line" smooth="yes"/>
      <point x="1822" y="884"/>
      <point x="1822" y="956"/>
      <point x="1729" y="956" type="curve" smooth="yes"/>
      <point x="1637" y="956"/>
      <point x="1636" y="884"/>
      <point x="1636" y="829" type="curve" smooth="yes"/>
      <point x="1636" y="343" type="line" smooth="yes"/>
      <point x="1636" y="274"/>
      <point x="1690" y="244"/>
    </contour>
    <contour>
      <point x="982" y="0" type="line"/>
      <point x="1523" y="1767" type="line"/>
      <point x="1199" y="1767" type="line"/>
      <point x="659" y="0" type="line"/>
    </contour>
    <contour>
      <point x="432" y="528" type="curve" smooth="yes"/>
      <point x="240" y="528"/>
      <point x="41" y="645"/>
      <point x="41" y="948" type="curve" smooth="yes"/>
      <point x="41" y="1311" type="line" smooth="yes"/>
      <point x="41" y="1593"/>
      <point x="180" y="1729"/>
      <point x="432" y="1729" type="curve" smooth="yes"/>
      <point x="684" y="1729"/>
      <point x="824" y="1593"/>
      <point x="824" y="1311" type="curve" smooth="yes"/>
      <point x="824" y="948" type="line" smooth="yes"/>
      <point x="824" y="645"/>
      <point x="625" y="528"/>
    </contour>
    <contour>
      <point x="432" y="790" type="curve" smooth="yes"/>
      <point x="471" y="790"/>
      <point x="525" y="820"/>
      <point x="525" y="889" type="curve" smooth="yes"/>
      <point x="525" y="1375" type="line" smooth="yes"/>
      <point x="525" y="1430"/>
      <point x="525" y="1502"/>
      <point x="432" y="1502" type="curve" smooth="yes"/>
      <point x="340" y="1502"/>
      <point x="339" y="1430"/>
      <point x="339" y="1375" type="curve" smooth="yes"/>
      <point x="339" y="889" type="line" smooth="yes"/>
      <point x="339" y="820"/>
      <point x="393" y="790"/>
    </contour>
  </outline>
</glyph>
<glyph name="ampersand" format="1">
  <advance width="1110"/>
  <unicode hex="0026"/>
  <outline>
    <contour>
      <point x="70" y="386" type="curve" smooth="yes"/>
      <point x="70" y="96"/>
      <point x="231" y="-21"/>
      <point x="391" y="-21" type="curve" smooth="yes"/>
      <point x="488" y="-21"/>
      <point x="584" y="22"/>
      <point x="645" y="97" type="curve"/>
      <point x="682" y="0" type="line"/>
      <point x="1022" y="0" type="line"/>
      <point x="843" y="432" type="line"/>
      <point x="884" y="544"/>
      <point x="948" y="671"/>
      <point x="1040" y="744" type="curve"/>
      <point x="901" y="961" type="line"/>
      <point x="824" y="904"/>
      <point x="767" y="823"/>
      <point x="729" y="726" type="curve"/>
      <point x="666" y="875" type="line"/>
      <point x="856" y="1027"/>
      <point x="901" y="1164"/>
      <point x="901" y="1273" type="curve" smooth="yes"/>
      <point x="901" y="1487"/>
      <point x="723" y="1582"/>
      <point x="556" y="1582" type="curve" smooth="yes"/>
      <point x="370" y="1582"/>
      <point x="208" y="1477"/>
      <point x="208" y="1262" type="curve" smooth="yes"/>
      <point x="208" y="1163"/>
      <point x="254" y="1027"/>
      <point x="308" y="921" type="curve"/>
      <point x="74" y="750"/>
      <point x="70" y="552"/>
    </contour>
    <contour>
      <point x="376" y="423" type="curve" smooth="yes"/>
      <point x="376" y="566"/>
      <point x="426" y="625"/>
      <point x="426" y="625" type="curve"/>
      <point x="548" y="334" type="line"/>
      <point x="548" y="334"/>
      <point x="522" y="235"/>
      <point x="447" y="235" type="curve" smooth="yes"/>
      <point x="370" y="235"/>
      <point x="376" y="374"/>
    </contour>
    <contour>
      <point x="532" y="1273" type="curve" smooth="yes"/>
      <point x="532" y="1305"/>
      <point x="551" y="1336"/>
      <point x="586" y="1336" type="curve" smooth="yes"/>
      <point x="627" y="1336"/>
      <point x="645" y="1310"/>
      <point x="645" y="1273" type="curve" smooth="yes"/>
      <point x="645" y="1173"/>
      <point x="575" y="1110"/>
      <point x="575" y="1110" type="curve"/>
      <point x="575" y="1110"/>
      <point x="532" y="1219"/>
    </contour>
  </outline>
</glyph>
<glyph name="quotesingle" format="1">
  <advance width="434"/>
  <unicode hex="0027"/>
  <outline>
    <contour>
      <point x="314" y="957" type="line"/>
      <point x="390" y="1593" type="line"/>
      <point x="38" y="1593" type="line"/>
      <point x="138" y="957" type="line"/>
    </contour>
  </outline>
</glyph>
<glyph name="parenleft" format="1">
  <advance width="622"/>
  <unicode hex="0028"/>
  <outline>
    <contour>
      <point x="556" y="268" type="line"/>
      <point x="484" y="287"/>
      <point x="417" y="343"/>
      <point x="417" y="450" type="curve" smooth="yes"/>
      <point x="417" y="1233" type="line" smooth="yes"/>
      <point x="417" y="1323"/>
      <point x="413" y="1439"/>
      <point x="556" y="1462" type="curve"/>
      <point x="556" y="1729" type="line"/>
      <point x="229" y="1720"/>
      <point x="45" y="1534"/>
      <point x="45" y="1151" type="curve" smooth="yes"/>
      <point x="45" y="562" type="line" smooth="yes"/>
      <point x="45" y="153"/>
      <point x="331" y="-7"/>
      <point x="556" y="-17" type="curve"/>
    </contour>
  </outline>
</glyph>
<glyph name="asterisk" format="1">
  <advance width="922"/>
  <unicode hex="002A"/>
  <outline>
    <contour>
      <point x="150" y="1480" type="line"/>
      <point x="34" y="1280" type="line"/>
      <point x="308" y="1171" type="line"/>
      <point x="34" y="1054" type="line"/>
      <point x="150" y="854" type="line"/>
      <point x="389" y="1043" type="line"/>
      <point x="345" y="741" type="line"/>
      <point x="577" y="741" type="line"/>
      <point x="541" y="1036" type="line"/>
      <point x="772" y="854" type="line"/>
      <point x="888" y="1054" type="line"/>
      <point x="613" y="1171" type="line"/>
      <point x="888" y="1280" type="line"/>
      <point x="772" y="1480" type="line"/>
      <point x="542" y="1307" type="line"/>
      <point x="577" y="1593" type="line"/>
      <point x="345" y="1593" type="line"/>
      <point x="388" y="1301" type="line"/>
    </contour>
  </outline>
</glyph>
<glyph name="plus" format="1">
  <advance width="700"/>
  <unicode hex="002B"/>
  <outline>
    <contour>
      <point x="26" y="509" type="line"/>
      <point x="234" y="509" type="line"/>
      <point x="234" y="301" type="line"/>
      <point x="466" y="301" type="line"/>
      <point x="466" y="509" type="line"/>
      <point x="674" y="509" type="line"/>
      <point x="674" y="741" type="line"/>
      <point x="466" y="741" type="line"/>
      <point x="466" y="949" type="line"/>
      <point x="234" y="949" type="line"/>
      <point x="234" y="741" type="line"/>
      <point x="26" y="741" type="line"/>
    </contour>
  </outline>
</glyph>
<glyph name="comma" format="1">
  <advance width="479"/>
  <unicode hex="002C"/>
  <outline>
    <contour>
      <point x="52" y="1" type="line"/>
      <point x="179" y="1" type="line"/>
      <point x="113" y="-235" type="line"/>
      <point x="324" y="-235" type="line"/>
      <point x="426" y="10" type="line"/>
      <point x="426" y="299" type="line"/>
      <point x="52" y="299" type="line"/>
    </contour>
  </outline>
</glyph>
<glyph name="hyphen" format="1">
  <advance width="650"/>
  <unicode hex="002D"/>
  <outline>
    <contour>
      <point x="67" y="509" type="line"/>
      <point x="583" y="509" type="line"/>
      <point x="583" y="741" type="line"/>
      <point x="67" y="741" type="line"/>
    </contour>
  </outline>
</glyph>
<glyph name="period" format="1">
  <advance width="491"/>
  <unicode hex="002E"/>
  <outline>
    <contour>
      <point x="67" y="1" type="line"/>
      <point x="425" y="1" type="line"/>
      <point x="425" y="299" type="line"/>
      <point x="67" y="299" type="line"/>
    </contour>
  </outline>
</glyph>
<glyph name="slash" format="1">
  <advance width="812"/>
  <unicode hex="002F"/>
  <outline>
    <contour>
      <point x="382" y="0" type="line"/>
      <point x="793" y="1767" type="line"/>
      <point x="429" y="1767" type="line"/>
      <point x="19" y="0" type="line"/>
    </contour>
  </outline>
</glyph>
<glyph name="zero" format="1">
  <advance width="1075"/>
  <unicode hex="0030"/>
  <outline>
    <contour>
      <point x="536" y="-18" type="curve" smooth="yes"/>
      <point x="307" y="-18"/>
      <point x="70" y="121"/>
      <point x="70" y="482" type="curve" smooth="yes"/>
      <point x="70" y="1109" type="line" smooth="yes"/>
      <point x="70" y="1445"/>
      <point x="236" y="1607"/>
      <point x="536" y="1607" type="curve" smooth="yes"/>
      <point x="836" y="1607"/>
      <point x="1002" y="1445"/>
      <point x="1002" y="1109" type="curve" smooth="yes"/>
      <point x="1002" y="482" type="line" smooth="yes"/>
      <point x="1002" y="121"/>
      <point x="765" y="-18"/>
    </contour>
    <contour>
      <point x="536" y="330" type="curve" smooth="yes"/>
      <point x="573" y="330"/>
      <point x="623" y="365"/>
      <point x="623" y="447" type="curve" smooth="yes"/>
      <point x="623" y="1151" type="line" smooth="yes"/>
      <point x="623" y="1216"/>
      <point x="622" y="1302"/>
      <point x="536" y="1302" type="curve" smooth="yes"/>
      <point x="450" y="1302"/>
      <point x="449" y="1216"/>
      <point x="449" y="1151" type="curve" smooth="yes"/>
      <point x="449" y="447" type="line" smooth="yes"/>
      <point x="449" y="365"/>
      <point x="499" y="330"/>
    </contour>
  </outline>
</glyph>
<glyph name="one" format="1">
  <advance width="707"/>
  <unicode hex="0031"/>
  <outline>
    <contour>
      <point x="346" y="1592" type="curve"/>
      <point x="346" y="1592"/>
      <point x="629" y="1592"/>
      <point x="629" y="1592" type="curve"/>
      <point x="629" y="0" type="line"/>
      <point x="256" y="0" type="line"/>
      <point x="256" y="1160" type="line"/>
      <point x="256" y="1160"/>
      <point x="150" y="1107"/>
      <point x="38" y="1106" type="curve"/>
      <point x="38" y="1105"/>
      <point x="38" y="1379"/>
      <point x="38" y="1379" type="curve"/>
      <point x="106" y="1379"/>
      <point x="346" y="1459"/>
    </contour>
  </outline>
</glyph>
<glyph name="two" format="1">
  <advance width="1073"/>
  <unicode hex="0032"/>
  <outline>
    <contour>
      <point x="76" y="0" type="line"/>
      <point x="989" y="0" type="line"/>
      <point x="989" y="322" type="line"/>
      <point x="509" y="322" type="line"/>
      <point x="663" y="621"/>
      <point x="1001" y="813"/>
      <point x="1001" y="1255" type="curve" smooth="yes"/>
      <point x="1001" y="1563"/>
      <point x="818" y="1716"/>
      <point x="539" y="1716" type="curve" smooth="yes"/>
      <point x="174" y="1716"/>
      <point x="72" y="1524"/>
      <point x="72" y="1139" type="curve" smooth="yes"/>
      <point x="72" y="1059"/>
      <point x="76" y="1034"/>
      <point x="76" y="1034" type="curve"/>
      <point x="446" y="1034" type="line"/>
      <point x="446" y="1243" type="line" smooth="yes"/>
      <point x="446" y="1305"/>
      <point x="458" y="1395"/>
      <point x="534" y="1395" type="curve" smooth="yes"/>
      <point x="613" y="1395"/>
      <point x="629" y="1326"/>
      <point x="629" y="1249" type="curve" smooth="yes"/>
      <point x="629" y="1088"/>
      <point x="568" y="998"/>
      <point x="539" y="963" type="curve" smooth="yes"/>
      <point x="300" y="677"/>
      <point x="76" y="427"/>
      <point x="76" y="82" type="curve" smooth="yes"/>
    </contour>
  </outline>
</glyph>
<glyph name="three" format="1">
  <advance width="1057"/>
  <unicode hex="0033"/>
  <outline>
    <contour>
      <point x="512" y="-19" type="curve" smooth="yes"/>
      <point x="863" y="-19"/>
      <point x="989" y="186"/>
      <point x="989" y="515" type="curve" smooth="yes"/>
      <point x="989" y="830"/>
      <point x="939" y="878"/>
      <point x="820" y="934" type="curve"/>
      <point x="963" y="984"/>
      <point x="985" y="1116"/>
      <point x="985" y="1257" type="curve" smooth="yes"/>
      <point x="985" y="1640"/>
      <point x="747" y="1712"/>
      <point x="535" y="1712" type="curve" smooth="yes"/>
      <point x="274" y="1712"/>
      <point x="78" y="1620"/>
      <point x="76" y="1257" type="curve" smooth="yes"/>
      <point x="76" y="1247"/>
      <point x="78" y="1197"/>
      <point x="78" y="1197" type="curve"/>
      <point x="442" y="1197" type="line"/>
      <point x="442" y="1197"/>
      <point x="442" y="1246"/>
      <point x="442" y="1249" type="curve" smooth="yes"/>
      <point x="452" y="1322"/>
      <point x="436" y="1398"/>
      <point x="537" y="1398" type="curve" smooth="yes"/>
      <point x="610" y="1398"/>
      <point x="623" y="1313"/>
      <point x="623" y="1253" type="curve" smooth="yes"/>
      <point x="623" y="1120"/>
      <point x="545" y="1083"/>
      <point x="436" y="1083" type="curve"/>
      <point x="436" y="776" type="line"/>
      <point x="448" y="778"/>
      <point x="459" y="778"/>
      <point x="470" y="778" type="curve" smooth="yes"/>
      <point x="625" y="778"/>
      <point x="620" y="601"/>
      <point x="620" y="515" type="curve" smooth="yes"/>
      <point x="620" y="330"/>
      <point x="592" y="297"/>
      <point x="529" y="297" type="curve" smooth="yes"/>
      <point x="492" y="297"/>
      <point x="428" y="298"/>
      <point x="428" y="459" type="curve" smooth="yes"/>
      <point x="428" y="558"/>
      <point x="428" y="639"/>
      <point x="428" y="639" type="curve"/>
      <point x="67" y="639" type="line"/>
      <point x="67" y="460" type="line" smooth="yes"/>
      <point x="67" y="116"/>
      <point x="224" y="-19"/>
    </contour>
  </outline>
</glyph>
<glyph name="four" format="1">
  <advance width="1122"/>
  <unicode hex="0034"/>
  <outline>
    <contour>
      <point x="1051" y="575" type="line"/>
      <point x="981" y="575" type="line"/>
      <point x="981" y="1592" type="line"/>
      <point x="423" y="1592" type="line"/>
      <point x="70" y="537" type="line"/>
      <point x="70" y="270" type="line"/>
      <point x="612" y="270" type="line"/>
      <point x="612" y="-1" type="line"/>
      <point x="981" y="-1" type="line"/>
      <point x="981" y="270" type="line"/>
      <point x="1051" y="270" type="line"/>
    </contour>
    <contour>
      <point x="414" y="575" type="line"/>
      <point x="612" y="1299" type="line"/>
      <point x="612" y="575" type="line"/>
    </contour>
  </outline>
</glyph>
<glyph name="five" format="1">
  <advance width="1069"/>
  <unicode hex="0035"/>
  <outline>
    <contour>
      <point x="530" y="-24" type="curve" smooth="yes"/>
      <point x="1001" y="-24"/>
      <point x="1001" y="324"/>
      <point x="1001" y="649" type="curve" smooth="yes"/>
      <point x="1001" y="991"/>
      <point x="926" y="1227"/>
      <point x="618" y="1227" type="curve" smooth="yes"/>
      <point x="558" y="1227"/>
      <point x="484" y="1214"/>
      <point x="444" y="1178" type="curve"/>
      <point x="443" y="1370" type="line"/>
      <point x="948" y="1370" type="line"/>
      <point x="948" y="1370"/>
      <point x="948" y="1582"/>
      <point x="948" y="1690" type="curve"/>
      <point x="668" y="1690"/>
      <point x="389" y="1690"/>
      <point x="109" y="1690" type="curve"/>
      <point x="109" y="1394"/>
      <point x="109" y="1097"/>
      <point x="109" y="801" type="curve"/>
      <point x="217" y="801"/>
      <point x="324" y="801"/>
      <point x="432" y="801" type="curve"/>
      <point x="432" y="853"/>
      <point x="442" y="942"/>
      <point x="532" y="942" type="curve" smooth="yes"/>
      <point x="621" y="942"/>
      <point x="623" y="825"/>
      <point x="623" y="764" type="curve" smooth="yes"/>
      <point x="623" y="428" type="line" smooth="yes"/>
      <point x="623" y="357"/>
      <point x="609" y="295"/>
      <point x="530" y="295" type="curve" smooth="yes"/>
      <point x="494" y="295"/>
      <point x="436" y="300"/>
      <point x="436" y="481" type="curve" smooth="yes"/>
      <point x="436" y="627" type="line"/>
      <point x="70" y="627" type="line"/>
      <point x="70" y="627"/>
      <point x="70" y="469"/>
      <point x="70" y="373" type="curve" smooth="yes"/>
      <point x="70" y="99"/>
      <point x="264" y="-24"/>
    </contour>
  </outline>
</glyph>
<glyph name="six" format="1">
  <advance width="1075"/>
  <unicode hex="0036"/>
  <outline>
    <contour>
      <point x="545" y="-21" type="curve" smooth="yes"/>
      <point x="932" y="-21"/>
      <point x="1004" y="227"/>
      <point x="1004" y="517" type="curve" smooth="yes"/>
      <point x="1004" y="840"/>
      <point x="918" y="996"/>
      <point x="641" y="996" type="curve" smooth="yes"/>
      <point x="490" y="996"/>
      <point x="444" y="895"/>
      <point x="444" y="895" type="curve"/>
      <point x="444" y="1184" type="line" smooth="yes"/>
      <point x="444" y="1225"/>
      <point x="444" y="1307"/>
      <point x="549" y="1307" type="curve" smooth="yes"/>
      <point x="654" y="1307"/>
      <point x="635" y="1144"/>
      <point x="637" y="1087" type="curve"/>
      <point x="1006" y="1087" type="line"/>
      <point x="1006" y="1087"/>
      <point x="1006" y="1194"/>
      <point x="1006" y="1272" type="curve" smooth="yes"/>
      <point x="1006" y="1498"/>
      <point x="749" y="1607"/>
      <point x="555" y="1607" type="curve" smooth="yes"/>
      <point x="68" y="1607"/>
      <point x="70" y="1241"/>
      <point x="70" y="874" type="curve" smooth="yes"/>
      <point x="70" y="527" type="line" smooth="yes"/>
      <point x="70" y="220"/>
      <point x="120" y="-21"/>
    </contour>
    <contour>
      <point x="444" y="573" type="line" smooth="yes"/>
      <point x="444" y="632"/>
      <point x="463" y="694"/>
      <point x="537" y="694" type="curve" smooth="yes"/>
      <point x="605" y="694"/>
      <point x="618" y="612"/>
      <point x="618" y="554" type="curve" smooth="yes"/>
      <point x="618" y="475" type="line" smooth="yes"/>
      <point x="618" y="394"/>
      <point x="622" y="293"/>
      <point x="532" y="293" type="curve" smooth="yes"/>
      <point x="481" y="293"/>
      <point x="444" y="328"/>
      <point x="444" y="419" type="curve" smooth="yes"/>
    </contour>
  </outline>
</glyph>
<glyph name="seven" format="1">
  <advance width="1018"/>
  <unicode hex="0037"/>
  <outline>
    <contour>
      <point x="141" y="1" type="curve"/>
      <point x="187" y="1"/>
      <point x="247" y="0"/>
      <point x="306" y="0" type="curve" smooth="yes"/>
      <point x="424" y="0"/>
      <point x="539" y="1"/>
      <point x="539" y="1" type="curve"/>
      <point x="590" y="794"/>
      <point x="923" y="1173"/>
      <point x="954" y="1451" type="curve"/>
      <point x="954" y="1706" type="line"/>
      <point x="66" y="1706" type="line"/>
      <point x="66" y="1389" type="line"/>
      <point x="563" y="1389" type="line"/>
      <point x="485" y="1098"/>
      <point x="184" y="633"/>
    </contour>
  </outline>
</glyph>
<glyph name="eight" format="1">
  <advance width="1069"/>
  <unicode hex="0038"/>
  <outline>
    <contour>
      <point x="536" y="791" type="curve" smooth="yes"/>
      <point x="434" y="791"/>
      <point x="441" y="618"/>
      <point x="441" y="544" type="curve" smooth="yes"/>
      <point x="441" y="530"/>
      <point x="440" y="510"/>
      <point x="440" y="488" type="curve" smooth="yes"/>
      <point x="440" y="415"/>
      <point x="450" y="319"/>
      <point x="536" y="319" type="curve" smooth="yes"/>
      <point x="622" y="319"/>
      <point x="632" y="415"/>
      <point x="632" y="488" type="curve" smooth="yes"/>
      <point x="632" y="526"/>
      <point x="631" y="545"/>
      <point x="631" y="575" type="curve" smooth="yes"/>
      <point x="631" y="657"/>
      <point x="626" y="791"/>
    </contour>
    <contour>
      <point x="536" y="1730" type="curve" smooth="yes"/>
      <point x="819" y="1730"/>
      <point x="996" y="1618"/>
      <point x="996" y="1283" type="curve" smooth="yes"/>
      <point x="996" y="1171"/>
      <point x="993" y="1014"/>
      <point x="847" y="955" type="curve"/>
      <point x="1009" y="879"/>
      <point x="997" y="726"/>
      <point x="997" y="510" type="curve" smooth="yes"/>
      <point x="997" y="88"/>
      <point x="790" y="-18"/>
      <point x="536" y="-18" type="curve" smooth="yes"/>
      <point x="282" y="-18"/>
      <point x="75" y="88"/>
      <point x="75" y="510" type="curve" smooth="yes"/>
      <point x="75" y="729"/>
      <point x="63" y="877"/>
      <point x="225" y="957" type="curve"/>
      <point x="73" y="1015"/>
      <point x="76" y="1185"/>
      <point x="76" y="1296" type="curve" smooth="yes"/>
      <point x="76" y="1621"/>
      <point x="260" y="1730"/>
    </contour>
    <contour>
      <point x="536" y="1101" type="curve" smooth="yes"/>
      <point x="619" y="1101"/>
      <point x="629" y="1199"/>
      <point x="629" y="1264" type="curve" smooth="yes"/>
      <point x="629" y="1328"/>
      <point x="611" y="1416"/>
      <point x="536" y="1416" type="curve" smooth="yes"/>
      <point x="461" y="1416"/>
      <point x="443" y="1328"/>
      <point x="443" y="1264" type="curve" smooth="yes"/>
      <point x="443" y="1199"/>
      <point x="453" y="1101"/>
    </contour>
  </outline>
</glyph>
<glyph name="nine" format="1">
  <advance width="1071"/>
  <unicode hex="0039"/>
  <outline>
    <contour>
      <point x="528" y="-18" type="curve" smooth="yes"/>
      <point x="1001" y="-18"/>
      <point x="1001" y="373"/>
      <point x="1001" y="727" type="curve"/>
      <point x="1004" y="1152" type="line"/>
      <point x="1004" y="1507"/>
      <point x="899" y="1725"/>
      <point x="541" y="1725" type="curve" smooth="yes"/>
      <point x="161" y="1725"/>
      <point x="69" y="1471"/>
      <point x="69" y="1164" type="curve" smooth="yes"/>
      <point x="69" y="794"/>
      <point x="143" y="598"/>
      <point x="423" y="598" type="curve" smooth="yes"/>
      <point x="492" y="598"/>
      <point x="569" y="623"/>
      <point x="618" y="676" type="curve"/>
      <point x="618" y="431" type="line" smooth="yes"/>
      <point x="618" y="346"/>
      <point x="561" y="320"/>
      <point x="526" y="320" type="curve" smooth="yes"/>
      <point x="496" y="320"/>
      <point x="436" y="346"/>
      <point x="437" y="417" type="curve" smooth="yes"/>
      <point x="438" y="496" type="line"/>
      <point x="66" y="496" type="line"/>
      <point x="66" y="346" type="line" smooth="yes"/>
      <point x="66" y="106"/>
      <point x="279" y="-18"/>
    </contour>
    <contour>
      <point x="449" y="1155" type="curve" smooth="yes"/>
      <point x="449" y="1369"/>
      <point x="465" y="1411"/>
      <point x="541" y="1411" type="curve" smooth="yes"/>
      <point x="616" y="1411"/>
      <point x="629" y="1331"/>
      <point x="629" y="1240" type="curve" smooth="yes"/>
      <point x="629" y="1079" type="line" smooth="yes"/>
      <point x="629" y="994"/>
      <point x="615" y="908"/>
      <point x="539" y="908" type="curve" smooth="yes"/>
      <point x="449" y="908"/>
      <point x="449" y="988"/>
    </contour>
  </outline>
</glyph>
<glyph name="colon" format="1">
  <advance width="491"/>
  <unicode hex="003A"/>
  <outline>
    <contour>
      <point x="67" y="237" type="line"/>
      <point x="425" y="237" type="line"/>
      <point x="425" y="535" type="line"/>
      <point x="67" y="535" type="line"/>
    </contour>
    <contour>
      <point x="67" y="976" type="line"/>
      <point x="425" y="976" type="line"/>
      <point x="425" y="1274" type="line"/>
      <point x="67" y="1274" type="line"/>
    </contour>
  </outline>
</glyph>
<glyph name="semicolon" format="1">
  <advance width="478"/>
  <unicode hex="003B"/>
  <outline>
    <contour>
      <point x="51" y="236" type="line"/>
      <point x="178" y="236" type="line"/>
      <point x="112" y="0" type="line"/>
      <point x="323" y="0" type="line"/>
      <point x="425" y="245" type="line"/>
      <point x="425" y="534" type="line"/>
      <point x="51" y="534" type="line"/>
    </contour>
    <contour>
      <point x="51" y="976" type="line"/>
      <point x="409" y="976" type="line"/>
      <point x="409" y="1274" type="line"/>
      <point x="51" y="1274" type="line"/>
    </contour>
  </outline>
</glyph>
<glyph name="less" format="1">
  <advance width="651"/>
  <unicode hex="003C"/>
  <outline>
    <contour>
      <point x="15" y="545" type="line"/>
      <point x="15" y="959" type="line"/>
      <point x="585" y="1300" type="line"/>
      <point x="585" y="941" type="line"/>
      <point x="243" y="749" type="line"/>
      <point x="585" y="558" type="line"/>
      <point x="585" y="200" type="line"/>
    </contour>
  </outline>
</glyph>
<glyph name="equal" format="1">
  <advance width="648"/>
  <unicode hex="003D"/>
  <outline>
    <contour>
      <point x="67" y="509" type="line"/>
      <point x="581" y="509" type="line"/>
      <point x="581" y="741" type="line"/>
      <point x="67" y="741" type="line"/>
    </contour>
    <contour>
      <point x="67" y="892" type="line"/>
      <point x="581" y="892" type="line"/>
      <point x="581" y="1116" type="line"/>
      <point x="67" y="1116" type="line"/>
    </contour>
  </outline>
</glyph>
<glyph name="greater" format="1">
  <advance width="652"/>
  <unicode hex="003E"/>
  <outline>
    <contour>
      <point x="637" y="545" type="line"/>
      <point x="637" y="959" type="line"/>
      <point x="67" y="1300" type="line"/>
      <point x="67" y="941" type="line"/>
      <point x="409" y="749" type="line"/>
      <point x="67" y="558" type="line"/>
      <point x="67" y="200" type="line"/>
    </contour>
  </outline>
</glyph>
<glyph name="question" format="1">
  <advance width="1007"/>
  <unicode hex="003F"/>
  <outline>
    <contour>
      <point x="512" y="1690" type="curve" smooth="yes"/>
      <point x="924" y="1690"/>
      <point x="982" y="1424"/>
      <point x="982" y="1140" type="curve" smooth="yes"/>
      <point x="982" y="827"/>
      <point x="839" y="579"/>
      <point x="464" y="579" type="curve"/>
      <point x="464" y="409" type="line"/>
      <point x="131" y="409" type="line"/>
      <point x="131" y="825" type="line"/>
      <point x="568" y="825"/>
      <point x="605" y="915"/>
      <point x="605" y="1208" type="curve" smooth="yes"/>
      <point x="605" y="1294"/>
      <point x="591" y="1371"/>
      <point x="512" y="1371" type="curve" smooth="yes"/>
      <point x="476" y="1371"/>
      <point x="418" y="1366"/>
      <point x="418" y="1185" type="curve" smooth="yes"/>
      <point x="418" y="1039" type="line"/>
      <point x="52" y="1039" type="line"/>
      <point x="52" y="1039"/>
      <point x="52" y="1197"/>
      <point x="52" y="1293" type="curve" smooth="yes"/>
      <point x="52" y="1567"/>
      <point x="246" y="1690"/>
    </contour>
    <contour>
      <point x="120" y="1" type="line"/>
      <point x="478" y="1" type="line"/>
      <point x="478" y="299" type="line"/>
      <point x="120" y="299" type="line"/>
    </contour>
  </outline>
</glyph>
<glyph name="at" format="1">
  <advance width="1833"/>
  <unicode hex="0040"/>
  <outline>
    <contour>
      <point x="832" y="718" type="curve" smooth="yes"/>
      <point x="832" y="876"/>
      <point x="832" y="972"/>
      <point x="988" y="972" type="curve"/>
      <point x="988" y="687" type="line" smooth="yes"/>
      <point x="988" y="644"/>
      <point x="975" y="570"/>
      <point x="912" y="570" type="curve" smooth="yes"/>
      <point x="861" y="570"/>
      <point x="832" y="622"/>
    </contour>
    <contour>
      <point x="1161" y="224" type="line"/>
      <point x="1060" y="213"/>
      <point x="967" y="206"/>
      <point x="885" y="206" type="curve" smooth="yes"/>
      <point x="552" y="206"/>
      <point x="368" y="306"/>
      <point x="368" y="723" type="curve" smooth="yes"/>
      <point x="368" y="1330"/>
      <point x="697" y="1365"/>
      <point x="1025" y="1365" type="curve" smooth="yes"/>
      <point x="1406" y="1365"/>
      <point x="1505" y="1109"/>
      <point x="1505" y="888" type="curve" smooth="yes"/>
      <point x="1505" y="681"/>
      <point x="1460" y="497"/>
      <point x="1391" y="497" type="curve" smooth="yes"/>
      <point x="1352" y="497"/>
      <point x="1310" y="543"/>
      <point x="1310" y="621" type="curve" smooth="yes"/>
      <point x="1310" y="1226" type="line"/>
      <point x="1049" y="1226" type="line"/>
      <point x="1009" y="1114" type="line"/>
      <point x="933" y="1181"/>
      <point x="861" y="1209"/>
      <point x="796" y="1209" type="curve" smooth="yes"/>
      <point x="619" y="1209"/>
      <point x="497" y="1056"/>
      <point x="497" y="718" type="curve" smooth="yes"/>
      <point x="497" y="425"/>
      <point x="629" y="326"/>
      <point x="758" y="326" type="curve" smooth="yes"/>
      <point x="868" y="326"/>
      <point x="969" y="367"/>
      <point x="1014" y="494" type="curve"/>
      <point x="1062" y="337"/>
      <point x="1172" y="268"/>
      <point x="1375" y="268" type="curve" smooth="yes"/>
      <point x="1639" y="268"/>
      <point x="1791" y="478"/>
      <point x="1791" y="867" type="curve" smooth="yes"/>
      <point x="1791" y="1237"/>
      <point x="1588" y="1630"/>
      <point x="1022" y="1630" type="curve" smooth="yes"/>
      <point x="435" y="1630"/>
      <point x="51" y="1446"/>
      <point x="51" y="726" type="curve" smooth="yes"/>
      <point x="51" y="210"/>
      <point x="306" y="-64"/>
      <point x="880" y="-64" type="curve" smooth="yes"/>
      <point x="979" y="-64"/>
      <point x="1087" y="-54"/>
      <point x="1205" y="-37" type="curve"/>
    </contour>
  </outline>
</glyph>
<glyph name="A" format="1">
  <advance width="1051"/>
  <unicode hex="0041"/>
  <outline>
    <contour>
      <point x="801" y="1593" type="line"/>
      <point x="250" y="1593" type="line"/>
      <point x="70" y="0" type="line"/>
      <point x="412" y="0" type="line"/>
      <point x="434" y="240" type="line"/>
      <point x="612" y="240" type="line"/>
      <point x="637" y="0" type="line"/>
      <point x="977" y="0" type="line"/>
    </contour>
    <contour>
      <point x="538" y="1294" type="line"/>
      <point x="585" y="530" type="line"/>
      <point x="459" y="530" type="line"/>
      <point x="506" y="1294" type="line"/>
    </contour>
  </outline>
</glyph>
<glyph name="B" format="1">
  <advance width="1012"/>
  <unicode hex="0042"/>
  <outline>
    <contour>
      <point x="80" y="0" type="line"/>
      <point x="557" y="0" type="line" smooth="yes"/>
      <point x="864" y="0"/>
      <point x="944" y="197"/>
      <point x="944" y="516" type="curve" smooth="yes"/>
      <point x="944" y="643"/>
      <point x="935" y="841"/>
      <point x="744" y="887" type="curve"/>
      <point x="935" y="935"/>
      <point x="924" y="1118"/>
      <point x="924" y="1229" type="curve" smooth="yes"/>
      <point x="924" y="1503"/>
      <point x="797" y="1593"/>
      <point x="557" y="1593" type="curve" smooth="yes"/>
      <point x="80" y="1593" type="line"/>
    </contour>
    <contour>
      <point x="424" y="745" type="line"/>
      <point x="489" y="745" type="line" smooth="yes"/>
      <point x="563" y="745"/>
      <point x="596" y="700"/>
      <point x="596" y="598" type="curve" smooth="yes"/>
      <point x="596" y="399" type="line" smooth="yes"/>
      <point x="596" y="312"/>
      <point x="536" y="281"/>
      <point x="459" y="281" type="curve" smooth="yes"/>
      <point x="448" y="281"/>
      <point x="436" y="282"/>
      <point x="424" y="283" type="curve"/>
    </contour>
    <contour>
      <point x="424" y="993" type="curve"/>
      <point x="424" y="1346" type="line"/>
      <point x="498" y="1346" type="line" smooth="yes"/>
      <point x="569" y="1346"/>
      <point x="573" y="1290"/>
      <point x="573" y="1270" type="curve" smooth="yes"/>
      <point x="573" y="1112" type="line" smooth="yes"/>
      <point x="573" y="1065"/>
      <point x="569" y="993"/>
      <point x="496" y="993" type="curve" smooth="yes"/>
      <point x="481" y="993"/>
      <point x="424" y="993"/>
    </contour>
  </outline>
</glyph>
<glyph name="C" format="1">
  <advance width="1016"/>
  <unicode hex="0043"/>
  <outline>
    <contour>
      <point x="944" y="686" type="line"/>
      <point x="588" y="686" type="line"/>
      <point x="588" y="412" type="line" smooth="yes"/>
      <point x="588" y="311"/>
      <point x="539" y="291"/>
      <point x="504" y="291" type="curve" smooth="yes"/>
      <point x="453" y="291"/>
      <point x="422" y="350"/>
      <point x="422" y="412" type="curve" smooth="yes"/>
      <point x="422" y="1165" type="line" smooth="yes"/>
      <point x="422" y="1225"/>
      <point x="430" y="1284"/>
      <point x="504" y="1284" type="curve" smooth="yes"/>
      <point x="575" y="1284"/>
      <point x="588" y="1206"/>
      <point x="588" y="1141" type="curve" smooth="yes"/>
      <point x="588" y="956" type="line"/>
      <point x="936" y="956" type="line"/>
      <point x="936" y="1237" type="line" smooth="yes"/>
      <point x="936" y="1491"/>
      <point x="741" y="1606"/>
      <point x="504" y="1606" type="curve" smooth="yes"/>
      <point x="203" y="1606"/>
      <point x="72" y="1446"/>
      <point x="72" y="1134" type="curve" smooth="yes"/>
      <point x="72" y="395" type="line" smooth="yes"/>
      <point x="72" y="121"/>
      <point x="256" y="-18"/>
      <point x="496" y="-18" type="curve" smooth="yes"/>
      <point x="766" y="-18"/>
      <point x="944" y="96"/>
      <point x="944" y="385" type="curve" smooth="yes"/>
    </contour>
  </outline>
</glyph>
<glyph name="D" format="1">
  <advance width="1018"/>
  <unicode hex="0044"/>
  <outline>
    <contour>
      <point x="76" y="0" type="line"/>
      <point x="549" y="0" type="line" smooth="yes"/>
      <point x="832" y="0"/>
      <point x="944" y="162"/>
      <point x="944" y="473" type="curve"/>
      <point x="940" y="1217" type="line" smooth="yes"/>
      <point x="939" y="1436"/>
      <point x="837" y="1593"/>
      <point x="561" y="1593" type="curve" smooth="yes"/>
      <point x="76" y="1593" type="line"/>
    </contour>
    <contour>
      <point x="430" y="1311" type="line"/>
      <point x="444" y="1312"/>
      <point x="457" y="1313"/>
      <point x="469" y="1313" type="curve" smooth="yes"/>
      <point x="557" y="1313"/>
      <point x="592" y="1280"/>
      <point x="592" y="1161" type="curve" smooth="yes"/>
      <point x="592" y="375" type="line" smooth="yes"/>
      <point x="592" y="301"/>
      <point x="538" y="290"/>
      <point x="491" y="290" type="curve" smooth="yes"/>
      <point x="472" y="290"/>
      <point x="455" y="292"/>
      <point x="442" y="292" type="curve" smooth="yes"/>
      <point x="437" y="292"/>
      <point x="433" y="292"/>
      <point x="430" y="291" type="curve"/>
    </contour>
  </outline>
</glyph>
<glyph name="E" format="1">
  <advance width="872"/>
  <unicode hex="0045"/>
  <outline>
    <contour>
      <point x="72" y="0" type="line"/>
      <point x="799" y="0" type="line"/>
      <point x="799" y="311" type="line"/>
      <point x="430" y="311" type="line"/>
      <point x="430" y="674" type="line"/>
      <point x="762" y="674" type="line"/>
      <point x="762" y="973" type="line"/>
      <point x="430" y="973" type="line"/>
      <point x="430" y="1284" type="line"/>
      <point x="776" y="1284" type="line"/>
      <point x="776" y="1593" type="line"/>
      <point x="72" y="1593" type="line"/>
    </contour>
  </outline>
</glyph>
<glyph name="F" format="1">
  <advance width="829"/>
  <unicode hex="0046"/>
  <outline>
    <contour>
      <point x="72" y="0" type="line"/>
      <point x="426" y="0" type="line"/>
      <point x="426" y="723" type="line"/>
      <point x="758" y="723" type="line"/>
      <point x="758" y="1030" type="line"/>
      <point x="426" y="1030" type="line"/>
      <point x="426" y="1282" type="line"/>
      <point x="776" y="1282" type="line"/>
      <point x="776" y="1593" type="line"/>
      <point x="72" y="1593" type="line"/>
    </contour>
  </outline>
</glyph>
<glyph name="G" format="1">
  <advance width="1010"/>
  <unicode hex="0047"/>
  <outline>
    <contour>
      <point x="799" y="0" type="line"/>
      <point x="739" y="135" type="line"/>
      <point x="668" y="20"/>
      <point x="555" y="-18"/>
      <point x="449" y="-18" type="curve" smooth="yes"/>
      <point x="170" y="-18"/>
      <point x="68" y="180"/>
      <point x="68" y="475" type="curve" smooth="yes"/>
      <point x="68" y="1165" type="line" smooth="yes"/>
      <point x="68" y="1561"/>
      <point x="334" y="1606"/>
      <point x="504" y="1606" type="curve" smooth="yes"/>
      <point x="905" y="1606"/>
      <point x="940" y="1364"/>
      <point x="940" y="1054" type="curve"/>
      <point x="604" y="1054" type="line"/>
      <point x="604" y="1180" type="line" smooth="yes"/>
      <point x="604" y="1288"/>
      <point x="551" y="1296"/>
      <point x="520" y="1296" type="curve" smooth="yes"/>
      <point x="422" y="1296"/>
      <point x="420" y="1243"/>
      <point x="420" y="1077" type="curve" smooth="yes"/>
      <point x="420" y="461" type="line" smooth="yes"/>
      <point x="420" y="387"/>
      <point x="426" y="293"/>
      <point x="516" y="293" type="curve" smooth="yes"/>
      <point x="592" y="293"/>
      <point x="604" y="356"/>
      <point x="604" y="469" type="curve" smooth="yes"/>
      <point x="604" y="653" type="line"/>
      <point x="510" y="653" type="line"/>
      <point x="510" y="928" type="line"/>
      <point x="936" y="928" type="line"/>
      <point x="936" y="0" type="line"/>
    </contour>
  </outline>
</glyph>
<glyph name="H" format="1">
  <advance width="1020"/>
  <unicode hex="0048"/>
  <outline>
    <contour>
      <point x="424" y="723" type="line"/>
      <point x="424" y="0" type="line"/>
      <point x="74" y="0" type="line"/>
      <point x="74" y="1593" type="line"/>
      <point x="424" y="1593" type="line"/>
      <point x="424" y="1024" type="line"/>
      <point x="590" y="1024" type="line"/>
      <point x="590" y="1593" type="line"/>
      <point x="940" y="1593" type="line"/>
      <point x="940" y="0" type="line"/>
      <point x="590" y="0" type="line"/>
      <point x="590" y="723" type="line"/>
    </contour>
  </outline>
</glyph>
<glyph name="I" format="1">
  <advance width="498"/>
  <unicode hex="0049"/>
  <outline>
    <contour>
      <point x="76" y="0" type="line"/>
      <point x="416" y="0" type="line"/>
      <point x="416" y="1593" type="line"/>
      <point x="76" y="1593" type="line"/>
    </contour>
  </outline>
</glyph>
<glyph name="J" format="1">
  <advance width="997"/>
  <unicode hex="004A"/>
  <outline>
    <contour>
      <point x="500" y="-18" type="curve" smooth="yes"/>
      <point x="745" y="-18"/>
      <point x="930" y="137"/>
      <point x="930" y="399" type="curve" smooth="yes"/>
      <point x="930" y="1593" type="line"/>
      <point x="575" y="1593" type="line"/>
      <point x="575" y="496" type="line" smooth="yes"/>
      <point x="575" y="482"/>
      <point x="576" y="464"/>
      <point x="576" y="444" type="curve" smooth="yes"/>
      <point x="576" y="382"/>
      <point x="567" y="305"/>
      <point x="496" y="305" type="curve" smooth="yes"/>
      <point x="440" y="305"/>
      <point x="418" y="350"/>
      <point x="418" y="403" type="curve" smooth="yes"/>
      <point x="418" y="752" type="line"/>
      <point x="70" y="752" type="line"/>
      <point x="70" y="352" type="line" smooth="yes"/>
      <point x="70" y="109"/>
      <point x="279" y="-18"/>
    </contour>
  </outline>
</glyph>
<glyph name="K" format="1">
  <advance width="1053"/>
  <unicode hex="004B"/>
  <outline>
    <contour>
      <point x="586" y="1593" type="line"/>
      <point x="422" y="956" type="line"/>
      <point x="422" y="1593" type="line"/>
      <point x="74" y="1593" type="line"/>
      <point x="74" y="0" type="line"/>
      <point x="424" y="0" type="line"/>
      <point x="424" y="772" type="line"/>
      <point x="616" y="0" type="line"/>
      <point x="981" y="0" type="line"/>
      <point x="743" y="864" type="line"/>
      <point x="940" y="1593" type="line"/>
    </contour>
  </outline>
</glyph>
<glyph name="L" format="1">
  <advance width="858"/>
  <unicode hex="004C"/>
  <outline>
    <contour>
      <point x="70" y="0" type="line"/>
      <point x="784" y="0" type="line"/>
      <point x="784" y="311" type="line"/>
      <point x="422" y="311" type="line"/>
      <point x="422" y="1593" type="line"/>
      <point x="70" y="1593" type="line"/>
    </contour>
  </outline>
</glyph>
<glyph name="M" format="1">
  <advance width="1528"/>
  <unicode hex="004D"/>
  <outline>
    <contour>
      <point x="926" y="0" type="line"/>
      <point x="610" y="0" type="line"/>
      <point x="416" y="1149" type="line"/>
      <point x="416" y="0" type="line"/>
      <point x="78" y="0" type="line"/>
      <point x="78" y="1593" type="line"/>
      <point x="614" y="1593" type="line"/>
      <point x="762" y="762" type="line"/>
      <point x="909" y="1593" type="line"/>
      <point x="1450" y="1593" type="line"/>
      <point x="1450" y="0" type="line"/>
      <point x="1108" y="0" type="line"/>
      <point x="1108" y="1149" type="line"/>
    </contour>
  </outline>
</glyph>
<glyph name="N" format="1">
  <advance width="1020"/>
  <unicode hex="004E"/>
  <outline>
    <contour>
      <point x="940" y="1593" type="line"/>
      <point x="600" y="1593" type="line"/>
      <point x="600" y="831" type="line"/>
      <point x="438" y="1593" type="line"/>
      <point x="76" y="1593" type="line"/>
      <point x="76" y="0" type="line"/>
      <point x="420" y="0" type="line"/>
      <point x="420" y="797" type="line"/>
      <point x="596" y="0" type="line"/>
      <point x="940" y="0" type="line"/>
    </contour>
  </outline>
</glyph>
<glyph name="O" format="1">
  <advance width="1004"/>
  <unicode hex="004F"/>
  <outline>
    <contour>
      <point x="506" y="-18" type="curve" smooth="yes"/>
      <point x="193" y="-18"/>
      <point x="72" y="178"/>
      <point x="72" y="430" type="curve" smooth="yes"/>
      <point x="72" y="1189" type="line" smooth="yes"/>
      <point x="72" y="1447"/>
      <point x="207" y="1607"/>
      <point x="506" y="1607" type="curve" smooth="yes"/>
      <point x="805" y="1607"/>
      <point x="940" y="1447"/>
      <point x="940" y="1189" type="curve" smooth="yes"/>
      <point x="940" y="430" type="line" smooth="yes"/>
      <point x="940" y="178"/>
      <point x="819" y="-18"/>
    </contour>
    <contour>
      <point x="506" y="297" type="curve" smooth="yes"/>
      <point x="590" y="297"/>
      <point x="586" y="412"/>
      <point x="586" y="473" type="curve" smooth="yes"/>
      <point x="586" y="1113" type="line" smooth="yes"/>
      <point x="586" y="1182"/>
      <point x="597" y="1295"/>
      <point x="506" y="1295" type="curve" smooth="yes"/>
      <point x="412" y="1295"/>
      <point x="420" y="1178"/>
      <point x="420" y="1117" type="curve" smooth="yes"/>
      <point x="420" y="477" type="line" smooth="yes"/>
      <point x="420" y="416"/>
      <point x="420" y="297"/>
    </contour>
  </outline>
</glyph>
<glyph name="P" format="1">
  <advance width="981"/>
  <unicode hex="0050"/>
  <outline>
    <contour>
      <point x="80" y="0" type="line"/>
      <point x="426" y="0" type="line"/>
      <point x="426" y="631" type="line"/>
      <point x="569" y="631" type="line" smooth="yes"/>
      <point x="862" y="631"/>
      <point x="936" y="815"/>
      <point x="936" y="1110" type="curve" smooth="yes"/>
      <point x="936" y="1481"/>
      <point x="780" y="1593"/>
      <point x="545" y="1593" type="curve" smooth="yes"/>
      <point x="80" y="1593" type="line"/>
    </contour>
    <contour>
      <point x="426" y="1303" type="line"/>
      <point x="465" y="1303" type="line" smooth="yes"/>
      <point x="555" y="1303"/>
      <point x="588" y="1257"/>
      <point x="588" y="1116" type="curve" smooth="yes"/>
      <point x="588" y="922"/>
      <point x="537" y="918"/>
      <point x="446" y="918" type="curve" smooth="yes"/>
      <point x="426" y="918" type="line"/>
    </contour>
  </outline>
</glyph>
<glyph name="Q" format="1">
  <advance width="1063"/>
  <unicode hex="0051"/>
  <outline>
    <contour>
      <point x="506" y="-18" type="curve" smooth="yes"/>
      <point x="537" y="-18"/>
      <point x="567" y="-12"/>
      <point x="594" y="-8" type="curve"/>
      <point x="874" y="-170" type="line"/>
      <point x="993" y="20" type="line"/>
      <point x="842" y="109" type="line"/>
      <point x="909" y="186"/>
      <point x="940" y="293"/>
      <point x="940" y="418" type="curve" smooth="yes"/>
      <point x="940" y="1186" type="line" smooth="yes"/>
      <point x="940" y="1444"/>
      <point x="805" y="1606"/>
      <point x="506" y="1606" type="curve" smooth="yes"/>
      <point x="207" y="1606"/>
      <point x="72" y="1444"/>
      <point x="72" y="1186" type="curve" smooth="yes"/>
      <point x="72" y="418" type="line" smooth="yes"/>
      <point x="72" y="166"/>
      <point x="193" y="-18"/>
    </contour>
    <contour>
      <point x="506" y="299" type="curve" smooth="yes"/>
      <point x="420" y="299"/>
      <point x="420" y="418"/>
      <point x="420" y="479" type="curve" smooth="yes"/>
      <point x="420" y="1114" type="line" smooth="yes"/>
      <point x="420" y="1175"/>
      <point x="410" y="1292"/>
      <point x="504" y="1292" type="curve" smooth="yes"/>
      <point x="595" y="1292"/>
      <point x="586" y="1178"/>
      <point x="586" y="1110" type="curve" smooth="yes"/>
      <point x="586" y="475" type="line" smooth="yes"/>
      <point x="586" y="414"/>
      <point x="590" y="299"/>
    </contour>
  </outline>
</glyph>
<glyph name="R" format="1">
  <advance width="1001"/>
  <unicode hex="0052"/>
  <outline>
    <contour>
      <point x="428" y="725" type="line"/>
      <point x="514" y="725"/>
      <point x="561" y="723"/>
      <point x="561" y="621" type="curve" smooth="yes"/>
      <point x="561" y="0" type="line"/>
      <point x="905" y="0" type="line"/>
      <point x="909" y="205"/>
      <point x="909" y="401"/>
      <point x="909" y="600" type="curve" smooth="yes"/>
      <point x="909" y="684"/>
      <point x="895" y="803"/>
      <point x="758" y="829" type="curve"/>
      <point x="928" y="881"/>
      <point x="932" y="1032"/>
      <point x="932" y="1147" type="curve" smooth="yes"/>
      <point x="932" y="1405"/>
      <point x="895" y="1593"/>
      <point x="612" y="1593" type="curve" smooth="yes"/>
      <point x="72" y="1593" type="line"/>
      <point x="72" y="0" type="line"/>
      <point x="72" y="0"/>
      <point x="385" y="0"/>
      <point x="428" y="0" type="curve"/>
    </contour>
    <contour>
      <point x="430" y="1298" type="line"/>
      <point x="449" y="1298" type="line" smooth="yes"/>
      <point x="557" y="1298"/>
      <point x="588" y="1280"/>
      <point x="588" y="1147" type="curve" smooth="yes"/>
      <point x="588" y="1094"/>
      <point x="584" y="1001"/>
      <point x="518" y="1001" type="curve" smooth="yes"/>
      <point x="430" y="1001" type="line"/>
    </contour>
  </outline>
</glyph>
<glyph name="S" format="1">
  <advance width="995"/>
  <unicode hex="0053"/>
  <outline>
    <contour>
      <point x="520" y="-18" type="curve" smooth="yes"/>
      <point x="848" y="-18"/>
      <point x="930" y="199"/>
      <point x="930" y="465" type="curve" smooth="yes"/>
      <point x="930" y="557"/>
      <point x="930" y="729"/>
      <point x="715" y="903" type="curve" smooth="yes"/>
      <point x="502" y="1075" type="line" smooth="yes"/>
      <point x="414" y="1146"/>
      <point x="403" y="1197"/>
      <point x="403" y="1223" type="curve" smooth="yes"/>
      <point x="403" y="1270"/>
      <point x="442" y="1300"/>
      <point x="487" y="1300" type="curve" smooth="yes"/>
      <point x="522" y="1300"/>
      <point x="557" y="1268"/>
      <point x="559" y="1231" type="curve"/>
      <point x="561" y="1135" type="line"/>
      <point x="918" y="1135" type="line"/>
      <point x="918" y="1503"/>
      <point x="748" y="1607"/>
      <point x="473" y="1607" type="curve" smooth="yes"/>
      <point x="231" y="1607"/>
      <point x="66" y="1481"/>
      <point x="66" y="1188" type="curve" smooth="yes"/>
      <point x="66" y="1044"/>
      <point x="140" y="929"/>
      <point x="246" y="838" type="curve" smooth="yes"/>
      <point x="395" y="709" type="line" smooth="yes"/>
      <point x="544" y="580"/>
      <point x="582" y="534"/>
      <point x="582" y="408" type="curve" smooth="yes"/>
      <point x="582" y="344"/>
      <point x="551" y="299"/>
      <point x="498" y="299" type="curve" smooth="yes"/>
      <point x="420" y="299"/>
      <point x="414" y="399"/>
      <point x="414" y="453" type="curve" smooth="yes"/>
      <point x="414" y="596" type="line"/>
      <point x="66" y="596" type="line"/>
      <point x="66" y="440" type="line" smooth="yes"/>
      <point x="66" y="137"/>
      <point x="184" y="-18"/>
    </contour>
  </outline>
</glyph>
<glyph name="T" format="1">
  <advance width="903"/>
  <unicode hex="0054"/>
  <outline>
    <contour>
      <point x="66" y="1593" type="line"/>
      <point x="66" y="1286" type="line"/>
      <point x="275" y="1286" type="line"/>
      <point x="275" y="0" type="line"/>
      <point x="627" y="0" type="line"/>
      <point x="627" y="1286" type="line"/>
      <point x="836" y="1286" type="line"/>
      <point x="836" y="1593" type="line"/>
    </contour>
  </outline>
</glyph>
<glyph name="U" format="1">
  <advance width="1014"/>
  <unicode hex="0055"/>
  <outline>
    <contour>
      <point x="504" y="-18" type="curve" smooth="yes"/>
      <point x="203" y="-18"/>
      <point x="76" y="141"/>
      <point x="76" y="422" type="curve" smooth="yes"/>
      <point x="76" y="1593" type="line"/>
      <point x="418" y="1593" type="line"/>
      <point x="418" y="453" type="line" smooth="yes"/>
      <point x="418" y="393"/>
      <point x="414" y="285"/>
      <point x="504" y="285" type="curve" smooth="yes"/>
      <point x="594" y="285"/>
      <point x="590" y="393"/>
      <point x="590" y="453" type="curve" smooth="yes"/>
      <point x="590" y="1593" type="line"/>
      <point x="932" y="1593" type="line"/>
      <point x="932" y="422" type="line" smooth="yes"/>
      <point x="932" y="141"/>
      <point x="805" y="-18"/>
    </contour>
  </outline>
</glyph>
<glyph name="V" format="1">
  <advance width="1028"/>
  <unicode hex="0056"/>
  <outline>
    <contour>
      <point x="756" y="0" type="line"/>
      <point x="276" y="0" type="line"/>
      <point x="59" y="1593" type="line"/>
      <point x="414" y="1593" type="line"/>
      <point x="513" y="537" type="line"/>
      <point x="618" y="1593" type="line"/>
      <point x="973" y="1593" type="line"/>
    </contour>
  </outline>
</glyph>
<glyph name="W" format="1">
  <advance width="1532"/>
  <unicode hex="0057"/>
  <outline>
    <contour>
      <point x="505" y="588" type="line"/>
      <point x="408" y="1593" type="line"/>
      <point x="64" y="1593" type="line"/>
      <point x="253" y="0" type="line"/>
      <point x="682" y="0" type="line"/>
      <point x="766" y="768" type="line"/>
      <point x="854" y="0" type="line"/>
      <point x="1276" y="0" type="line"/>
      <point x="1468" y="1593" type="line"/>
      <point x="1120" y="1593" type="line"/>
      <point x="1026" y="588" type="line"/>
      <point x="932" y="1593" type="line"/>
      <point x="604" y="1593" type="line"/>
    </contour>
  </outline>
</glyph>
<glyph name="X" format="1">
  <advance width="1067"/>
  <unicode hex="0058"/>
  <outline>
    <contour>
      <point x="534" y="623" type="line"/>
      <point x="420" y="0" type="line"/>
      <point x="63" y="0" type="line"/>
      <point x="252" y="846" type="line"/>
      <point x="102" y="1593" type="line"/>
      <point x="446" y="1593" type="line"/>
      <point x="537" y="1049" type="line"/>
      <point x="618" y="1593" type="line"/>
      <point x="963" y="1593" type="line"/>
      <point x="813" y="846" type="line"/>
      <point x="1001" y="0" type="line"/>
      <point x="645" y="0" type="line"/>
    </contour>
  </outline>
</glyph>
<glyph name="Y" format="1">
  <advance width="1022"/>
  <unicode hex="0059"/>
  <outline>
    <contour>
      <point x="674" y="0" type="line"/>
      <point x="342" y="0" type="line"/>
      <point x="342" y="524" type="line"/>
      <point x="61" y="1593" type="line"/>
      <point x="410" y="1593" type="line"/>
      <point x="508" y="1053" type="line"/>
      <point x="606" y="1593" type="line"/>
      <point x="954" y="1593" type="line"/>
      <point x="674" y="524" type="line"/>
    </contour>
  </outline>
</glyph>
<glyph name="Z" format="1">
  <advance width="954"/>
  <unicode hex="005A"/>
  <outline>
    <contour>
      <point x="70" y="0" type="line"/>
      <point x="866" y="0" type="line"/>
      <point x="866" y="307" type="line"/>
      <point x="453" y="307" type="line"/>
      <point x="883" y="1296" type="line"/>
      <point x="883" y="1593" type="line"/>
      <point x="109" y="1593" type="line"/>
      <point x="109" y="1284" type="line"/>
      <point x="492" y="1284" type="line"/>
      <point x="70" y="303" type="line"/>
    </contour>
  </outline>
</glyph>
<glyph name="bracketleft" format="1">
  <advance width="688"/>
  <unicode hex="005B"/>
  <outline>
    <contour>
      <point x="419" y="1312" type="line"/>
      <point x="621" y="1312" type="line"/>
      <point x="621" y="1593" type="line"/>
      <point x="67" y="1593" type="line"/>
      <point x="67" y="0" type="line"/>
      <point x="621" y="0" type="line"/>
      <point x="621" y="281" type="line"/>
      <point x="419" y="281" type="line"/>
    </contour>
  </outline>
</glyph>
<glyph name="backslash" format="1">
  <advance width="812"/>
  <unicode hex="005C"/>
  <outline>
    <contour>
      <point x="430" y="0" type="line"/>
      <point x="19" y="1767" type="line"/>
      <point x="383" y="1767" type="line"/>
      <point x="793" y="0" type="line"/>
    </contour>
  </outline>
</glyph>
<glyph name="bracketright" format="1">
  <advance width="688"/>
  <unicode hex="005D"/>
  <outline>
    <contour>
      <point x="269" y="1312" type="line"/>
      <point x="67" y="1312" type="line"/>
      <point x="67" y="1593" type="line"/>
      <point x="621" y="1593" type="line"/>
      <point x="621" y="0" type="line"/>
      <point x="67" y="0" type="line"/>
      <point x="67" y="281" type="line"/>
      <point x="269" y="281" type="line"/>
    </contour>
  </outline>
</glyph>
<glyph name="underscore" format="1">
  <advance width="650"/>
  <unicode hex="005F"/>
  <outline>
    <contour>
      <point x="0" y="-232" type="line"/>
      <point x="651" y="-232" type="line"/>
      <point x="651" y="0" type="line"/>
      <point x="0" y="0" type="line"/>
    </contour>
  </outline>
</glyph>
<glyph name="a" format="1">
  <advance width="1018"/>
  <unicode hex="0061"/>
  <outline>
    <contour>
      <point x="61" y="430" type="curve" smooth="yes"/>
      <point x="61" y="49"/>
      <point x="201" y="-18"/>
      <point x="365" y="-18" type="curve" smooth="yes"/>
      <point x="469" y="-18"/>
      <point x="565" y="73"/>
      <point x="588" y="156" type="curve"/>
      <point x="588" y="0" type="line"/>
      <point x="944" y="0" type="line"/>
      <point x="944" y="1143" type="line" smooth="yes"/>
      <point x="944" y="1413"/>
      <point x="721" y="1518"/>
      <point x="524" y="1518" type="curve" smooth="yes"/>
      <point x="200" y="1518"/>
      <point x="83" y="1383"/>
      <point x="83" y="1105" type="curve" smooth="yes"/>
      <point x="83" y="1089"/>
      <point x="83" y="1073"/>
      <point x="84" y="1056" type="curve"/>
      <point x="432" y="1056" type="line"/>
      <point x="432" y="1157" type="line" smooth="yes"/>
      <point x="432" y="1204"/>
      <point x="453" y="1239"/>
      <point x="506" y="1239" type="curve" smooth="yes"/>
      <point x="582" y="1239"/>
      <point x="582" y="1167"/>
      <point x="583" y="980" type="curve"/>
      <point x="206" y="851"/>
      <point x="61" y="816"/>
    </contour>
    <contour>
      <point x="426" y="570" type="line" smooth="yes"/>
      <point x="426" y="648"/>
      <point x="449" y="721"/>
      <point x="582" y="774" type="curve"/>
      <point x="582" y="379" type="line" smooth="yes"/>
      <point x="582" y="336"/>
      <point x="569" y="262"/>
      <point x="506" y="262" type="curve" smooth="yes"/>
      <point x="455" y="262"/>
      <point x="426" y="299"/>
      <point x="426" y="395" type="curve" smooth="yes"/>
    </contour>
  </outline>
</glyph>
<glyph name="b" format="1">
  <advance width="1008"/>
  <unicode hex="0062"/>
  <outline>
    <contour>
      <point x="435" y="160" type="line"/>
      <point x="492" y="6"/>
      <point x="585" y="-18"/>
      <point x="646" y="-18" type="curve" smooth="yes"/>
      <point x="718" y="-18"/>
      <point x="962" y="8"/>
      <point x="962" y="391" type="curve" smooth="yes"/>
      <point x="962" y="1114" type="line" smooth="yes"/>
      <point x="962" y="1512"/>
      <point x="730" y="1519"/>
      <point x="635" y="1519" type="curve" smooth="yes"/>
      <point x="592" y="1519"/>
      <point x="521" y="1515"/>
      <point x="435" y="1427" type="curve"/>
      <point x="435" y="1769" type="line"/>
      <point x="67" y="1769" type="line"/>
      <point x="67" y="0" type="line"/>
      <point x="435" y="0" type="line"/>
    </contour>
    <contour>
      <point x="435" y="1085" type="line" smooth="yes"/>
      <point x="435" y="1219"/>
      <point x="482" y="1239"/>
      <point x="523" y="1239" type="curve" smooth="yes"/>
      <point x="568" y="1239"/>
      <point x="599" y="1214"/>
      <point x="599" y="1081" type="curve" smooth="yes"/>
      <point x="599" y="457" type="line" smooth="yes"/>
      <point x="599" y="297"/>
      <point x="583" y="263"/>
      <point x="525" y="263" type="curve" smooth="yes"/>
      <point x="470" y="263"/>
      <point x="435" y="297"/>
      <point x="435" y="457" type="curve" smooth="yes"/>
    </contour>
  </outline>
</glyph>
<glyph name="c" format="1">
  <advance width="1036"/>
  <unicode hex="0063"/>
  <outline>
    <contour>
      <point x="72" y="492" type="line" smooth="yes"/>
      <point x="72" y="268"/>
      <point x="111" y="-18"/>
      <point x="535" y="-18" type="curve" smooth="yes"/>
      <point x="784" y="-18"/>
      <point x="965" y="127"/>
      <point x="965" y="379" type="curve" smooth="yes"/>
      <point x="965" y="614" type="line"/>
      <point x="600" y="614" type="line"/>
      <point x="602" y="389" type="line" smooth="yes"/>
      <point x="603" y="281"/>
      <point x="546" y="264"/>
      <point x="518" y="264" type="curve" smooth="yes"/>
      <point x="449" y="264"/>
      <point x="432" y="340"/>
      <point x="432" y="387" type="curve" smooth="yes"/>
      <point x="432" y="1114" type="line" smooth="yes"/>
      <point x="432" y="1219"/>
      <point x="479" y="1239"/>
      <point x="520" y="1239" type="curve" smooth="yes"/>
      <point x="590" y="1239"/>
      <point x="600" y="1176"/>
      <point x="600" y="1116" type="curve" smooth="yes"/>
      <point x="600" y="879" type="line"/>
      <point x="965" y="879" type="line"/>
      <point x="965" y="1135" type="line" smooth="yes"/>
      <point x="965" y="1380"/>
      <point x="780" y="1518"/>
      <point x="530" y="1518" type="curve" smooth="yes"/>
      <point x="199" y="1518"/>
      <point x="72" y="1358"/>
      <point x="72" y="954" type="curve" smooth="yes"/>
    </contour>
  </outline>
</glyph>
<glyph name="d" format="1">
  <advance width="1030"/>
  <unicode hex="0064"/>
  <outline>
    <contour>
      <point x="68" y="477" type="line"/>
      <point x="68" y="205"/>
      <point x="92" y="-18"/>
      <point x="375" y="-18" type="curve" smooth="yes"/>
      <point x="457" y="-18"/>
      <point x="543" y="12"/>
      <point x="598" y="159" type="curve"/>
      <point x="598" y="0" type="line"/>
      <point x="956" y="0" type="line"/>
      <point x="956" y="1767" type="line"/>
      <point x="598" y="1767" type="line"/>
      <point x="598" y="1767"/>
      <point x="598" y="1527"/>
      <point x="598" y="1419" type="curve"/>
      <point x="543" y="1493"/>
      <point x="455" y="1518"/>
      <point x="381" y="1518" type="curve" smooth="yes"/>
      <point x="170" y="1518"/>
      <point x="72" y="1341"/>
      <point x="72" y="1153" type="curve"/>
    </contour>
    <contour>
      <point x="426" y="1083" type="line" smooth="yes"/>
      <point x="426" y="1151"/>
      <point x="434" y="1239"/>
      <point x="514" y="1239" type="curve" smooth="yes"/>
      <point x="590" y="1239"/>
      <point x="598" y="1130"/>
      <point x="598" y="1083" type="curve" smooth="yes"/>
      <point x="598" y="520" type="line" smooth="yes"/>
      <point x="598" y="444"/>
      <point x="609" y="264"/>
      <point x="512" y="264" type="curve" smooth="yes"/>
      <point x="434" y="264"/>
      <point x="425" y="380"/>
      <point x="425" y="460" type="curve" smooth="yes"/>
      <point x="425" y="485"/>
      <point x="426" y="507"/>
      <point x="426" y="520" type="curve" smooth="yes"/>
    </contour>
  </outline>
</glyph>
<glyph name="e" format="1">
  <advance width="996"/>
  <unicode hex="0065"/>
  <outline>
    <contour>
      <point x="490" y="-18" type="curve" smooth="yes"/>
      <point x="858" y="-18"/>
      <point x="940" y="182"/>
      <point x="940" y="494" type="curve" smooth="yes"/>
      <point x="940" y="579" type="line"/>
      <point x="584" y="579" type="line"/>
      <point x="585" y="575"/>
      <point x="586" y="501"/>
      <point x="586" y="483" type="curve" smooth="yes"/>
      <point x="586" y="393"/>
      <point x="583" y="260"/>
      <point x="502" y="260" type="curve" smooth="yes"/>
      <point x="424" y="260"/>
      <point x="415" y="345"/>
      <point x="415" y="427" type="curve" smooth="yes"/>
      <point x="415" y="450"/>
      <point x="416" y="473"/>
      <point x="416" y="494" type="curve" smooth="yes"/>
      <point x="416" y="704" type="line"/>
      <point x="936" y="704" type="line"/>
      <point x="939" y="761"/>
      <point x="940" y="890"/>
      <point x="940" y="983" type="curve" smooth="yes"/>
      <point x="940" y="1045"/>
      <point x="940" y="1092"/>
      <point x="940" y="1092" type="curve"/>
      <point x="940" y="1395"/>
      <point x="777" y="1518"/>
      <point x="508" y="1518" type="curve" smooth="yes"/>
      <point x="228" y="1518"/>
      <point x="58" y="1372"/>
      <point x="58" y="1092" type="curve" smooth="yes"/>
      <point x="58" y="489" type="line" smooth="yes"/>
      <point x="58" y="256"/>
      <point x="105" y="-18"/>
    </contour>
    <contour>
      <point x="504" y="1249" type="curve" smooth="yes"/>
      <point x="574" y="1249"/>
      <point x="584" y="1151"/>
      <point x="584" y="1087" type="curve" smooth="yes"/>
      <point x="584" y="1005"/>
      <point x="584" y="931"/>
      <point x="584" y="931" type="curve"/>
      <point x="416" y="931" type="line"/>
      <point x="416" y="972"/>
      <point x="414" y="1016"/>
      <point x="414" y="1057" type="curve" smooth="yes"/>
      <point x="414" y="1160"/>
      <point x="425" y="1249"/>
    </contour>
  </outline>
</glyph>
<glyph name="f" format="1">
  <advance width="635"/>
  <unicode hex="0066"/>
  <outline>
    <contour>
      <point x="137" y="0" type="line"/>
      <point x="492" y="0" type="line"/>
      <point x="492" y="1157" type="line"/>
      <point x="563" y="1157" type="line"/>
      <point x="563" y="1434" type="line"/>
      <point x="485" y="1434" type="line"/>
      <point x="485" y="1441"/>
      <point x="485" y="1447"/>
      <point x="485" y="1453" type="curve" smooth="yes"/>
      <point x="485" y="1502"/>
      <point x="490" y="1533"/>
      <point x="530" y="1533" type="curve" smooth="yes"/>
      <point x="539" y="1533"/>
      <point x="550" y="1531"/>
      <point x="563" y="1528" type="curve"/>
      <point x="563" y="1749" type="line"/>
      <point x="563" y="1749"/>
      <point x="494" y="1778"/>
      <point x="379" y="1778" type="curve" smooth="yes"/>
      <point x="178" y="1778"/>
      <point x="137" y="1653"/>
      <point x="137" y="1536" type="curve" smooth="yes"/>
      <point x="137" y="1434" type="line"/>
      <point x="76" y="1434" type="line"/>
      <point x="76" y="1434"/>
      <point x="72" y="1208"/>
      <point x="72" y="1161" type="curve"/>
      <point x="137" y="1161" type="line"/>
    </contour>
  </outline>
</glyph>
<glyph name="g" format="1">
  <advance width="1036"/>
  <unicode hex="0067"/>
  <outline>
    <contour>
      <point x="485" y="-220" type="curve" smooth="yes"/>
      <point x="798" y="-220"/>
      <point x="973" y="-116"/>
      <point x="973" y="254" type="curve" smooth="yes"/>
      <point x="973" y="1500" type="line"/>
      <point x="973" y="1500"/>
      <point x="729" y="1500"/>
      <point x="608" y="1500" type="curve"/>
      <point x="608" y="1476"/>
      <point x="608" y="1356"/>
      <point x="608" y="1331" type="curve"/>
      <point x="574" y="1484"/>
      <point x="465" y="1518"/>
      <point x="379" y="1518" type="curve" smooth="yes"/>
      <point x="200" y="1518"/>
      <point x="80" y="1425"/>
      <point x="80" y="1106" type="curve" smooth="yes"/>
      <point x="80" y="543" type="line" smooth="yes"/>
      <point x="80" y="340"/>
      <point x="160" y="160"/>
      <point x="379" y="160" type="curve" smooth="yes"/>
      <point x="493" y="160"/>
      <point x="577" y="206"/>
      <point x="608" y="314" type="curve"/>
      <point x="608" y="305"/>
      <point x="608" y="231"/>
      <point x="608" y="231" type="curve"/>
      <point x="608" y="107"/>
      <point x="549" y="33"/>
      <point x="438" y="33" type="curve" smooth="yes"/>
      <point x="336" y="33"/>
      <point x="258" y="62"/>
      <point x="176" y="111" type="curve"/>
      <point x="55" y="-96" type="line"/>
      <point x="184" y="-203"/>
      <point x="309" y="-220"/>
    </contour>
    <contour>
      <point x="520" y="1243" type="curve" smooth="yes"/>
      <point x="581" y="1243"/>
      <point x="608" y="1163"/>
      <point x="608" y="1116" type="curve" smooth="yes"/>
      <point x="608" y="582" type="line" smooth="yes"/>
      <point x="608" y="500"/>
      <point x="592" y="430"/>
      <point x="524" y="430" type="curve" smooth="yes"/>
      <point x="444" y="430"/>
      <point x="442" y="530"/>
      <point x="442" y="582" type="curve" smooth="yes"/>
      <point x="442" y="1116" type="line" smooth="yes"/>
      <point x="442" y="1163"/>
      <point x="442" y="1243"/>
    </contour>
  </outline>
</glyph>
<glyph name="h" format="1">
  <advance width="1030"/>
  <unicode hex="0068"/>
  <outline>
    <contour>
      <point x="70" y="0" type="line"/>
      <point x="438" y="0" type="line"/>
      <point x="438" y="1135" type="line" smooth="yes"/>
      <point x="438" y="1221"/>
      <point x="494" y="1243"/>
      <point x="518" y="1243" type="curve" smooth="yes"/>
      <point x="598" y="1243"/>
      <point x="607" y="1154"/>
      <point x="607" y="1085" type="curve" smooth="yes"/>
      <point x="607" y="1066"/>
      <point x="606" y="1047"/>
      <point x="606" y="1034" type="curve" smooth="yes"/>
      <point x="606" y="0" type="line"/>
      <point x="965" y="0" type="line"/>
      <point x="965" y="0"/>
      <point x="965" y="758"/>
      <point x="965" y="1155" type="curve" smooth="yes"/>
      <point x="965" y="1405"/>
      <point x="838" y="1519"/>
      <point x="657" y="1519" type="curve" smooth="yes"/>
      <point x="549" y="1519"/>
      <point x="475" y="1459"/>
      <point x="438" y="1351" type="curve"/>
      <point x="438" y="1767" type="line"/>
      <point x="70" y="1767" type="line"/>
    </contour>
  </outline>
</glyph>
<glyph name="i" format="1">
  <advance width="487"/>
  <unicode hex="0069"/>
  <outline>
    <contour>
      <point x="65" y="0" type="line"/>
      <point x="423" y="0" type="line"/>
      <point x="423" y="1500" type="line"/>
      <point x="65" y="1500" type="line"/>
    </contour>
    <contour>
      <point x="65" y="1567" type="line"/>
      <point x="423" y="1567" type="line"/>
      <point x="423" y="1769" type="line"/>
      <point x="65" y="1769" type="line"/>
    </contour>
  </outline>
</glyph>
<glyph name="j" format="1">
  <advance width="565"/>
  <unicode hex="006A"/>
  <outline>
    <contour>
      <point x="129" y="1500" type="line"/>
      <point x="129" y="156" type="line" smooth="yes"/>
      <point x="129" y="113"/>
      <point x="122" y="85"/>
      <point x="86" y="85" type="curve" smooth="yes"/>
      <point x="77" y="85"/>
      <point x="66" y="86"/>
      <point x="53" y="90" type="curve"/>
      <point x="53" y="-150" type="line"/>
      <point x="53" y="-150"/>
      <point x="90" y="-176"/>
      <point x="205" y="-176" type="curve" smooth="yes"/>
      <point x="406" y="-176"/>
      <point x="487" y="-53"/>
      <point x="487" y="166" type="curve" smooth="yes"/>
      <point x="487" y="1500" type="line"/>
    </contour>
    <contour>
      <point x="129" y="1567" type="line"/>
      <point x="487" y="1567" type="line"/>
      <point x="487" y="1769" type="line"/>
      <point x="129" y="1769" type="line"/>
    </contour>
  </outline>
</glyph>
<glyph name="k" format="1">
  <advance width="1075"/>
  <unicode hex="006B"/>
  <outline>
    <contour>
      <point x="76" y="0" type="line"/>
      <point x="430" y="0" type="line"/>
      <point x="430" y="707" type="line"/>
      <point x="653" y="0" type="line"/>
      <point x="1034" y="0" type="line"/>
      <point x="748" y="848" type="line"/>
      <point x="973" y="1500" type="line"/>
      <point x="602" y="1500" type="line"/>
      <point x="430" y="983" type="line"/>
      <point x="430" y="1769" type="line"/>
      <point x="76" y="1769" type="line"/>
    </contour>
  </outline>
</glyph>
<glyph name="l" format="1">
  <advance width="510"/>
  <unicode hex="006C"/>
  <outline>
    <contour>
      <point x="436" y="0" type="line"/>
      <point x="436" y="1767" type="line"/>
      <point x="72" y="1767" type="line"/>
      <point x="72" y="0" type="line"/>
    </contour>
  </outline>
</glyph>
<glyph name="m" format="1">
  <advance width="1546"/>
  <unicode hex="006D"/>
  <outline>
    <contour>
      <point x="67" y="1501" type="line"/>
      <point x="67" y="0" type="line"/>
      <point x="417" y="0" type="line"/>
      <point x="417" y="0"/>
      <point x="417" y="711"/>
      <point x="417" y="1059" type="curve" smooth="yes"/>
      <point x="417" y="1130"/>
      <point x="436" y="1243"/>
      <point x="517" y="1243" type="curve" smooth="yes"/>
      <point x="596" y="1243"/>
      <point x="587" y="1106"/>
      <point x="587" y="1059" type="curve" smooth="yes"/>
      <point x="587" y="0" type="line"/>
      <point x="945" y="0" type="line"/>
      <point x="945" y="1077" type="line" smooth="yes"/>
      <point x="945" y="1137"/>
      <point x="962" y="1247"/>
      <point x="1042" y="1247" type="curve" smooth="yes"/>
      <point x="1113" y="1247"/>
      <point x="1115" y="1149"/>
      <point x="1115" y="1102" type="curve" smooth="yes"/>
      <point x="1115" y="0" type="line"/>
      <point x="1476" y="0" type="line"/>
      <point x="1480" y="1096" type="line" smooth="yes"/>
      <point x="1481" y="1292"/>
      <point x="1446" y="1519"/>
      <point x="1167" y="1519" type="curve" smooth="yes"/>
      <point x="1051" y="1519"/>
      <point x="976" y="1481"/>
      <point x="912" y="1365" type="curve"/>
      <point x="867" y="1483"/>
      <point x="752" y="1519"/>
      <point x="669" y="1519" type="curve" smooth="yes"/>
      <point x="579" y="1519"/>
      <point x="461" y="1500"/>
      <point x="417" y="1326" type="curve"/>
      <point x="417" y="1501" type="line"/>
    </contour>
  </outline>
</glyph>
<glyph name="n" format="1">
  <advance width="1012"/>
  <unicode hex="006E"/>
  <outline>
    <contour>
      <point x="67" y="0" type="line"/>
      <point x="425" y="0" type="line"/>
      <point x="425" y="1055" type="line" smooth="yes"/>
      <point x="425" y="1112"/>
      <point x="425" y="1239"/>
      <point x="515" y="1239" type="curve" smooth="yes"/>
      <point x="577" y="1239"/>
      <point x="595" y="1171"/>
      <point x="595" y="1120" type="curve" smooth="yes"/>
      <point x="595" y="0" type="line"/>
      <point x="948" y="0" type="line"/>
      <point x="948" y="1157" type="line" smooth="yes"/>
      <point x="948" y="1411"/>
      <point x="831" y="1518"/>
      <point x="651" y="1518" type="curve" smooth="yes"/>
      <point x="545" y="1518"/>
      <point x="456" y="1465"/>
      <point x="425" y="1329" type="curve"/>
      <point x="425" y="1501" type="line"/>
      <point x="67" y="1501" type="line"/>
    </contour>
  </outline>
</glyph>
<glyph name="o" format="1">
  <advance width="1036"/>
  <unicode hex="006F"/>
  <outline>
    <contour>
      <point x="520" y="-18" type="curve" smooth="yes"/>
      <point x="231" y="-18"/>
      <point x="72" y="131"/>
      <point x="72" y="449" type="curve" smooth="yes"/>
      <point x="72" y="1051" type="line" smooth="yes"/>
      <point x="72" y="1337"/>
      <point x="242" y="1518"/>
      <point x="520" y="1518" type="curve" smooth="yes"/>
      <point x="799" y="1518"/>
      <point x="969" y="1337"/>
      <point x="969" y="1051" type="curve" smooth="yes"/>
      <point x="969" y="449" type="line" smooth="yes"/>
      <point x="969" y="131"/>
      <point x="809" y="-18"/>
    </contour>
    <contour>
      <point x="520" y="1239" type="curve" smooth="yes"/>
      <point x="465" y="1239"/>
      <point x="436" y="1194"/>
      <point x="436" y="1108" type="curve" smooth="yes"/>
      <point x="436" y="375" type="line" smooth="yes"/>
      <point x="436" y="289"/>
      <point x="475" y="260"/>
      <point x="520" y="260" type="curve" smooth="yes"/>
      <point x="565" y="260"/>
      <point x="604" y="289"/>
      <point x="604" y="375" type="curve" smooth="yes"/>
      <point x="604" y="1108" type="line" smooth="yes"/>
      <point x="604" y="1194"/>
      <point x="575" y="1239"/>
    </contour>
  </outline>
</glyph>
<glyph name="p" format="1">
  <advance width="1038"/>
  <unicode hex="0070"/>
  <outline>
    <contour>
      <point x="440" y="-186" type="line"/>
      <point x="440" y="59" type="line"/>
      <point x="492" y="2"/>
      <point x="571" y="-18"/>
      <point x="645" y="-18" type="curve" smooth="yes"/>
      <point x="969" y="-18"/>
      <point x="967" y="276"/>
      <point x="967" y="526" type="curve" smooth="yes"/>
      <point x="967" y="1075" type="line" smooth="yes"/>
      <point x="967" y="1319"/>
      <point x="903" y="1518"/>
      <point x="655" y="1518" type="curve" smooth="yes"/>
      <point x="571" y="1518"/>
      <point x="494" y="1485"/>
      <point x="440" y="1419" type="curve"/>
      <point x="440" y="1500" type="line"/>
      <point x="76" y="1500" type="line"/>
      <point x="76" y="-186" type="line"/>
    </contour>
    <contour>
      <point x="440" y="1079" type="line" smooth="yes"/>
      <point x="440" y="1139"/>
      <point x="446" y="1235"/>
      <point x="524" y="1235" type="curve" smooth="yes"/>
      <point x="606" y="1235"/>
      <point x="604" y="1133"/>
      <point x="604" y="1075" type="curve" smooth="yes"/>
      <point x="604" y="438" type="line" smooth="yes"/>
      <point x="604" y="311"/>
      <point x="582" y="262"/>
      <point x="526" y="262" type="curve" smooth="yes"/>
      <point x="461" y="262"/>
      <point x="440" y="319"/>
      <point x="440" y="422" type="curve" smooth="yes"/>
    </contour>
  </outline>
</glyph>
<glyph name="q" format="1">
  <advance width="1038"/>
  <unicode hex="0071"/>
  <outline>
    <contour>
      <point x="604" y="-186" type="line"/>
      <point x="604" y="90" type="line"/>
      <point x="551" y="18"/>
      <point x="473" y="-18"/>
      <point x="399" y="-18" type="curve" smooth="yes"/>
      <point x="76" y="-18"/>
      <point x="78" y="238"/>
      <point x="78" y="487" type="curve" smooth="yes"/>
      <point x="78" y="1075" type="line" smooth="yes"/>
      <point x="78" y="1319"/>
      <point x="141" y="1518"/>
      <point x="389" y="1518" type="curve" smooth="yes"/>
      <point x="473" y="1518"/>
      <point x="551" y="1485"/>
      <point x="604" y="1419" type="curve"/>
      <point x="604" y="1500" type="line"/>
      <point x="969" y="1500" type="line"/>
      <point x="969" y="-186" type="line"/>
    </contour>
    <contour>
      <point x="604" y="1079" type="line" smooth="yes"/>
      <point x="604" y="1139"/>
      <point x="598" y="1235"/>
      <point x="520" y="1235" type="curve" smooth="yes"/>
      <point x="438" y="1235"/>
      <point x="440" y="1133"/>
      <point x="440" y="1075" type="curve" smooth="yes"/>
      <point x="440" y="438" type="line" smooth="yes"/>
      <point x="440" y="311"/>
      <point x="463" y="262"/>
      <point x="518" y="262" type="curve" smooth="yes"/>
      <point x="584" y="262"/>
      <point x="604" y="319"/>
      <point x="604" y="422" type="curve" smooth="yes"/>
    </contour>
  </outline>
</glyph>
<glyph name="r" format="1">
  <advance width="920"/>
  <unicode hex="0072"/>
  <outline>
    <contour>
      <point x="67" y="0" type="line"/>
      <point x="425" y="0" type="line"/>
      <point x="425" y="1147" type="line" smooth="yes"/>
      <point x="425" y="1204"/>
      <point x="460" y="1233"/>
      <point x="491" y="1233" type="curve" smooth="yes"/>
      <point x="544" y="1233"/>
      <point x="548" y="1178"/>
      <point x="548" y="1135" type="curve" smooth="yes"/>
      <point x="548" y="776" type="line"/>
      <point x="898" y="776" type="line"/>
      <point x="898" y="1278" type="line" smooth="yes"/>
      <point x="898" y="1446"/>
      <point x="765" y="1518"/>
      <point x="646" y="1518" type="curve" smooth="yes"/>
      <point x="544" y="1518"/>
      <point x="467" y="1479"/>
      <point x="425" y="1333" type="curve"/>
      <point x="425" y="1500" type="line"/>
      <point x="67" y="1500" type="line"/>
    </contour>
  </outline>
</glyph>
<glyph name="s" format="1">
  <advance width="996"/>
  <unicode hex="0073"/>
  <outline>
    <contour>
      <point x="569" y="1053" type="line"/>
      <point x="937" y="1053" type="line"/>
      <point x="937" y="1081" type="line" smooth="yes"/>
      <point x="937" y="1386"/>
      <point x="774" y="1518"/>
      <point x="501" y="1518" type="curve" smooth="yes"/>
      <point x="280" y="1518"/>
      <point x="57" y="1397"/>
      <point x="57" y="1157" type="curve" smooth="yes"/>
      <point x="57" y="1012"/>
      <point x="69" y="904"/>
      <point x="241" y="772" type="curve" smooth="yes"/>
      <point x="432" y="625" type="line" smooth="yes"/>
      <point x="575" y="515"/>
      <point x="573" y="458"/>
      <point x="573" y="385" type="curve" smooth="yes"/>
      <point x="573" y="285"/>
      <point x="536" y="268"/>
      <point x="501" y="268" type="curve" smooth="yes"/>
      <point x="467" y="268"/>
      <point x="414" y="276"/>
      <point x="413" y="377" type="curve" smooth="yes"/>
      <point x="411" y="553" type="line"/>
      <point x="53" y="553" type="line"/>
      <point x="51" y="434" type="line"/>
      <point x="51" y="139"/>
      <point x="193" y="-18"/>
      <point x="495" y="-18" type="curve" smooth="yes"/>
      <point x="763" y="-18"/>
      <point x="946" y="123"/>
      <point x="946" y="418" type="curve" smooth="yes"/>
      <point x="946" y="524"/>
      <point x="931" y="700"/>
      <point x="700" y="870" type="curve" smooth="yes"/>
      <point x="479" y="1032" type="line" smooth="yes"/>
      <point x="419" y="1076"/>
      <point x="415" y="1136"/>
      <point x="415" y="1159" type="curve" smooth="yes"/>
      <point x="415" y="1208"/>
      <point x="440" y="1239"/>
      <point x="491" y="1239" type="curve" smooth="yes"/>
      <point x="554" y="1239"/>
      <point x="567" y="1157"/>
      <point x="567" y="1110" type="curve"/>
    </contour>
  </outline>
</glyph>
<glyph name="t" format="1">
  <advance width="616"/>
  <unicode hex="0074"/>
  <outline>
    <contour>
      <point x="129" y="1761" type="line"/>
      <point x="477" y="1761" type="line"/>
      <point x="477" y="1442" type="line"/>
      <point x="541" y="1442" type="line"/>
      <point x="541" y="1169" type="line"/>
      <point x="477" y="1169" type="line"/>
      <point x="477" y="1164"/>
      <point x="477" y="328"/>
      <point x="477" y="325" type="curve" smooth="yes"/>
      <point x="477" y="284"/>
      <point x="478" y="248"/>
      <point x="515" y="248" type="curve" smooth="yes"/>
      <point x="522" y="248"/>
      <point x="531" y="249"/>
      <point x="541" y="252" type="curve"/>
      <point x="541" y="8" type="line"/>
      <point x="541" y="8"/>
      <point x="465" y="-18"/>
      <point x="350" y="-18" type="curve" smooth="yes"/>
      <point x="150" y="-18"/>
      <point x="129" y="115"/>
      <point x="129" y="231" type="curve" smooth="yes"/>
      <point x="129" y="1169" type="line"/>
      <point x="74" y="1169" type="line"/>
      <point x="74" y="1442" type="line"/>
      <point x="129" y="1442" type="line"/>
    </contour>
  </outline>
</glyph>
<glyph name="u" format="1">
  <advance width="1013"/>
  <unicode hex="0075"/>
  <outline>
    <contour>
      <point x="591" y="1500" type="line"/>
      <point x="589" y="455" type="line" smooth="yes"/>
      <point x="589" y="385"/>
      <point x="595" y="264"/>
      <point x="505" y="264" type="curve" smooth="yes"/>
      <point x="429" y="264"/>
      <point x="425" y="317"/>
      <point x="425" y="455" type="curve" smooth="yes"/>
      <point x="425" y="1500" type="line"/>
      <point x="65" y="1500" type="line"/>
      <point x="65" y="383" type="line" smooth="yes"/>
      <point x="65" y="172"/>
      <point x="95" y="-18"/>
      <point x="358" y="-18" type="curve" smooth="yes"/>
      <point x="452" y="-18"/>
      <point x="529" y="7"/>
      <point x="589" y="160" type="curve"/>
      <point x="589" y="108"/>
      <point x="589" y="0"/>
      <point x="589" y="0" type="curve"/>
      <point x="947" y="0" type="line"/>
      <point x="947" y="1500" type="line"/>
    </contour>
  </outline>
</glyph>
<glyph name="v" format="1">
  <advance width="1010"/>
  <unicode hex="0076"/>
  <outline>
    <contour>
      <point x="707" y="0" type="line"/>
      <point x="293" y="0" type="line"/>
      <point x="52" y="1500" type="line"/>
      <point x="411" y="1500" type="line"/>
      <point x="485" y="741" type="line"/>
      <point x="497" y="498" type="line"/>
      <point x="511" y="743" type="line"/>
      <point x="594" y="1500" type="line"/>
      <point x="952" y="1500" type="line"/>
    </contour>
  </outline>
</glyph>
<glyph name="w" format="1">
  <advance width="1538"/>
  <unicode hex="0077"/>
  <outline>
    <contour>
      <point x="946" y="1500" type="line"/>
      <point x="1030" y="694" type="line"/>
      <point x="1122" y="1500" type="line"/>
      <point x="1479" y="1500" type="line"/>
      <point x="1268" y="0" type="line"/>
      <point x="852" y="0" type="line"/>
      <point x="764" y="801" type="line"/>
      <point x="680" y="0" type="line"/>
      <point x="264" y="0" type="line"/>
      <point x="53" y="1500" type="line"/>
      <point x="410" y="1500" type="line"/>
      <point x="499" y="694" type="line"/>
      <point x="586" y="1500" type="line"/>
    </contour>
  </outline>
</glyph>
<glyph name="x" format="1">
  <advance width="1075"/>
  <unicode hex="0078"/>
  <outline>
    <contour>
      <point x="540" y="684" type="line"/>
      <point x="419" y="0" type="line"/>
      <point x="69" y="0" type="line"/>
      <point x="233" y="843" type="line"/>
      <point x="105" y="1501" type="line"/>
      <point x="453" y="1501" type="line"/>
      <point x="541" y="989" type="line"/>
      <point x="629" y="1501" type="line"/>
      <point x="983" y="1501" type="line"/>
      <point x="856" y="834" type="line"/>
      <point x="1006" y="0" type="line"/>
      <point x="655" y="0" type="line"/>
    </contour>
  </outline>
</glyph>
<glyph name="y" format="1">
  <advance width="1018"/>
  <unicode hex="0079"/>
  <outline>
    <contour>
      <point x="86" y="-186" type="line"/>
      <point x="451" y="-186" type="line" smooth="yes"/>
      <point x="570" y="-186"/>
      <point x="660" y="-186"/>
      <point x="687" y="-14" type="curve" smooth="yes"/>
      <point x="965" y="1501" type="line"/>
      <point x="610" y="1501" type="line"/>
      <point x="530" y="821" type="line"/>
      <point x="502" y="489" type="line"/>
      <point x="478" y="821" type="line"/>
      <point x="412" y="1501" type="line"/>
      <point x="59" y="1501" type="line"/>
      <point x="290" y="155" type="line" smooth="yes"/>
      <point x="293" y="135"/>
      <point x="295" y="117"/>
      <point x="295" y="103" type="curve" smooth="yes"/>
      <point x="295" y="59"/>
      <point x="274" y="41"/>
      <point x="198" y="41" type="curve" smooth="yes"/>
      <point x="86" y="41" type="line"/>
    </contour>
  </outline>
</glyph>
<glyph name="z" format="1">
  <advance width="954"/>
  <unicode hex="007A"/>
  <outline>
    <contour>
      <point x="72" y="0" type="line"/>
      <point x="856" y="0" type="line"/>
      <point x="856" y="301" type="line"/>
      <point x="479" y="301" type="line"/>
      <point x="881" y="1194" type="line"/>
      <point x="881" y="1500" type="line"/>
      <point x="111" y="1500" type="line"/>
      <point x="111" y="1194" type="line"/>
      <point x="485" y="1194" type="line"/>
      <point x="72" y="272" type="line"/>
    </contour>
  </outline>
</glyph>
<glyph name="braceleft" format="1">
  <advance width="720"/>
  <unicode hex="007B"/>
  <outline>
    <contour>
      <point x="163" y="1225" type="curve" smooth="yes"/>
      <point x="163" y="1011"/>
      <point x="167" y="965"/>
      <point x="24" y="936" type="curve"/>
      <point x="24" y="669" type="line"/>
      <point x="167" y="639"/>
      <point x="163" y="588"/>
      <point x="163" y="370" type="curve" smooth="yes"/>
      <point x="163" y="117"/>
      <point x="339" y="-9"/>
      <point x="654" y="-18" type="curve"/>
      <point x="654" y="249" type="line"/>
      <point x="511" y="258"/>
      <point x="515" y="304"/>
      <point x="515" y="338" type="curve" smooth="yes"/>
      <point x="515" y="651"/>
      <point x="455" y="706"/>
      <point x="345" y="802" type="curve"/>
      <point x="455" y="900"/>
      <point x="515" y="955"/>
      <point x="515" y="1272" type="curve" smooth="yes"/>
      <point x="515" y="1306"/>
      <point x="518" y="1347"/>
      <point x="654" y="1356" type="curve"/>
      <point x="654" y="1623" type="line"/>
      <point x="339" y="1614"/>
      <point x="163" y="1483"/>
    </contour>
  </outline>
</glyph>
<glyph name="bar" format="1">
  <advance width="457"/>
  <unicode hex="007C"/>
  <outline>
    <contour>
      <point x="386" y="-84" type="line"/>
      <point x="386" y="1683" type="line"/>
      <point x="67" y="1683" type="line"/>
      <point x="67" y="-84" type="line"/>
    </contour>
  </outline>
</glyph>
<glyph name="braceright" format="1">
  <advance width="721"/>
  <unicode hex="007D"/>
  <outline>
    <contour>
      <point x="558" y="1225" type="curve" smooth="yes"/>
      <point x="558" y="1011"/>
      <point x="554" y="965"/>
      <point x="697" y="936" type="curve"/>
      <point x="697" y="669" type="line"/>
      <point x="554" y="639"/>
      <point x="558" y="588"/>
      <point x="558" y="370" type="curve" smooth="yes"/>
      <point x="558" y="117"/>
      <point x="382" y="-9"/>
      <point x="67" y="-18" type="curve"/>
      <point x="67" y="249" type="line"/>
      <point x="210" y="258"/>
      <point x="206" y="304"/>
      <point x="206" y="338" type="curve" smooth="yes"/>
      <point x="206" y="651"/>
      <point x="266" y="706"/>
      <point x="376" y="802" type="curve"/>
      <point x="266" y="900"/>
      <point x="206" y="955"/>
      <point x="206" y="1272" type="curve" smooth="yes"/>
      <point x="206" y="1306"/>
      <point x="203" y="1347"/>
      <point x="67" y="1356" type="curve"/>
      <point x="67" y="1623" type="line"/>
      <point x="382" y="1614"/>
      <point x="558" y="1483"/>
    </contour>
  </outline>
</glyph>
<glyph name="asciitilde" format="1">
  <advance width="1015"/>
  <unicode hex="007E"/>
  <outline>
    <contour>
      <point x="360" y="886" type="curve" smooth="yes"/>
      <point x="334" y="886"/>
      <point x="308" y="868"/>
      <point x="282" y="807" type="curve"/>
      <point x="40" y="923" type="line"/>
      <point x="119" y="1119"/>
      <point x="225" y="1222"/>
      <point x="370" y="1222" type="curve" smooth="yes"/>
      <point x="477" y="1222"/>
      <point x="561" y="1114"/>
      <point x="653" y="1114" type="curve" smooth="yes"/>
      <point x="678" y="1114"/>
      <point x="705" y="1132"/>
      <point x="732" y="1193" type="curve"/>
      <point x="974" y="1077" type="line"/>
      <point x="894" y="881"/>
      <point x="787" y="776"/>
      <point x="642" y="776" type="curve" smooth="yes"/>
      <point x="521" y="776"/>
      <point x="449" y="886"/>
    </contour>
  </outline>
</glyph>
<glyph name="cent" format="1">
  <advance width="1036"/>
  <unicode hex="00A2"/>
  <outline>
    <contour>
      <point x="446" y="-113" type="line"/>
      <point x="619" y="-113" type="line"/>
      <point x="619" y="-12" type="line"/>
      <point x="823" y="17"/>
      <point x="965" y="156"/>
      <point x="965" y="379" type="curve" smooth="yes"/>
      <point x="965" y="614" type="line"/>
      <point x="600" y="614" type="line"/>
      <point x="602" y="389" type="line" smooth="yes"/>
      <point x="603" y="281"/>
      <point x="546" y="264"/>
      <point x="518" y="264" type="curve" smooth="yes"/>
      <point x="449" y="264"/>
      <point x="432" y="340"/>
      <point x="432" y="387" type="curve" smooth="yes"/>
      <point x="432" y="1114" type="line" smooth="yes"/>
      <point x="432" y="1219"/>
      <point x="479" y="1239"/>
      <point x="520" y="1239" type="curve" smooth="yes"/>
      <point x="590" y="1239"/>
      <point x="600" y="1176"/>
      <point x="600" y="1116" type="curve" smooth="yes"/>
      <point x="600" y="879" type="line"/>
      <point x="965" y="879" type="line"/>
      <point x="965" y="1135" type="line" smooth="yes"/>
      <point x="965" y="1350"/>
      <point x="822" y="1482"/>
      <point x="619" y="1511" type="curve"/>
      <point x="619" y="1607" type="line"/>
      <point x="446" y="1607" type="line"/>
      <point x="446" y="1514" type="line"/>
      <point x="177" y="1487"/>
      <point x="72" y="1322"/>
      <point x="72" y="954" type="curve" smooth="yes"/>
      <point x="72" y="492" type="line" smooth="yes"/>
      <point x="72" y="285"/>
      <point x="105" y="24"/>
      <point x="446" y="-13" type="curve"/>
    </contour>
  </outline>
</glyph>
<glyph name="sterling" format="1">
  <advance width="1021"/>
  <unicode hex="00A3"/>
  <outline>
    <contour>
      <point x="51" y="673" type="line"/>
      <point x="213" y="673" type="line"/>
      <point x="222" y="634"/>
      <point x="222" y="599"/>
      <point x="222" y="568" type="curve" smooth="yes"/>
      <point x="222" y="438"/>
      <point x="192" y="368"/>
      <point x="46" y="281" type="curve"/>
      <point x="46" y="0" type="line"/>
      <point x="928" y="0" type="line"/>
      <point x="928" y="291" type="line"/>
      <point x="458" y="291" type="line"/>
      <point x="458" y="291"/>
      <point x="588" y="359"/>
      <point x="600" y="541" type="curve"/>
      <point x="589" y="673" type="line"/>
      <point x="838" y="673" type="line"/>
      <point x="838" y="905" type="line"/>
      <point x="554" y="905" type="line"/>
      <point x="488" y="1167"/>
      <point x="498" y="1170"/>
      <point x="498" y="1173" type="curve" smooth="yes"/>
      <point x="498" y="1270"/>
      <point x="495" y="1312"/>
      <point x="554" y="1312" type="curve" smooth="yes"/>
      <point x="610" y="1312"/>
      <point x="618" y="1238"/>
      <point x="618" y="1125" type="curve"/>
      <point x="937" y="1125" type="line"/>
      <point x="937" y="1543"/>
      <point x="731" y="1608"/>
      <point x="548" y="1608" type="curve" smooth="yes"/>
      <point x="347" y="1608"/>
      <point x="131" y="1537"/>
      <point x="131" y="1224" type="curve" smooth="yes"/>
      <point x="131" y="1134"/>
      <point x="186" y="905"/>
      <point x="186" y="905" type="curve"/>
      <point x="51" y="905" type="line"/>
    </contour>
  </outline>
</glyph>
<glyph name="currency" format="1">
  <advance width="1017"/>
  <unicode hex="00A4"/>
  <outline>
    <contour>
      <point x="508" y="545" type="curve" smooth="yes"/>
      <point x="593" y="545"/>
      <point x="665" y="564"/>
      <point x="724" y="597" type="curve"/>
      <point x="813" y="509" type="line"/>
      <point x="963" y="658" type="line"/>
      <point x="873" y="748" type="line"/>
      <point x="909" y="813"/>
      <point x="927" y="888"/>
      <point x="927" y="964" type="curve" smooth="yes"/>
      <point x="927" y="1039"/>
      <point x="909" y="1114"/>
      <point x="873" y="1179" type="curve"/>
      <point x="963" y="1269" type="line"/>
      <point x="813" y="1418" type="line"/>
      <point x="726" y="1331" type="line"/>
      <point x="666" y="1364"/>
      <point x="594" y="1385"/>
      <point x="508" y="1385" type="curve" smooth="yes"/>
      <point x="422" y="1385"/>
      <point x="350" y="1364"/>
      <point x="290" y="1330" type="curve"/>
      <point x="203" y="1418" type="line"/>
      <point x="54" y="1268" type="line"/>
      <point x="144" y="1178" type="line"/>
      <point x="109" y="1113"/>
      <point x="92" y="1038"/>
      <point x="92" y="964" type="curve" smooth="yes"/>
      <point x="92" y="889"/>
      <point x="110" y="815"/>
      <point x="145" y="750" type="curve"/>
      <point x="54" y="659" type="line"/>
      <point x="203" y="509" type="line"/>
      <point x="292" y="598" type="line"/>
      <point x="351" y="564"/>
      <point x="423" y="545"/>
    </contour>
    <contour>
      <point x="508" y="1186" type="curve" smooth="yes"/>
      <point x="647" y="1186"/>
      <point x="717" y="1082"/>
      <point x="717" y="966" type="curve" smooth="yes"/>
      <point x="717" y="854"/>
      <point x="647" y="741"/>
      <point x="508" y="741" type="curve" smooth="yes"/>
      <point x="370" y="741"/>
      <point x="300" y="852"/>
      <point x="300" y="964" type="curve" smooth="yes"/>
      <point x="300" y="1075"/>
      <point x="370" y="1186"/>
    </contour>
  </outline>
</glyph>
<glyph name="yen" format="1">
  <advance width="1022"/>
  <unicode hex="00A5"/>
  <outline>
    <contour>
      <point x="204" y="475" type="line"/>
      <point x="342" y="475" type="line"/>
      <point x="342" y="408" type="line"/>
      <point x="204" y="408" type="line"/>
      <point x="204" y="176" type="line"/>
      <point x="342" y="176" type="line"/>
      <point x="342" y="0" type="line"/>
      <point x="674" y="0" type="line"/>
      <point x="674" y="176" type="line"/>
      <point x="808" y="176" type="line"/>
      <point x="808" y="408" type="line"/>
      <point x="674" y="408" type="line"/>
      <point x="674" y="475" type="line"/>
      <point x="808" y="475" type="line"/>
      <point x="808" y="699" type="line"/>
      <point x="720" y="699" type="line"/>
      <point x="954" y="1593" type="line"/>
      <point x="606" y="1593" type="line"/>
      <point x="508" y="1053" type="line"/>
      <point x="410" y="1593" type="line"/>
      <point x="61" y="1593" type="line"/>
      <point x="296" y="699" type="line"/>
      <point x="204" y="699" type="line"/>
    </contour>
  </outline>
</glyph>
<glyph name="brokenbar" format="1">
  <advance width="457"/>
  <unicode hex="00A6"/>
  <outline>
    <contour>
      <point x="386" y="-84" type="line"/>
      <point x="386" y="676" type="line"/>
      <point x="67" y="676" type="line"/>
      <point x="67" y="-84" type="line"/>
    </contour>
    <contour>
      <point x="386" y="923" type="line"/>
      <point x="386" y="1683" type="line"/>
      <point x="67" y="1683" type="line"/>
      <point x="67" y="923" type="line"/>
    </contour>
  </outline>
</glyph>
<glyph name="section" format="1">
  <advance width="1034"/>
  <unicode hex="00A7"/>
  <outline>
    <contour>
      <point x="607" y="324" type="curve" smooth="yes"/>
      <point x="607" y="277"/>
      <point x="575" y="242"/>
      <point x="521" y="242" type="curve" smooth="yes"/>
      <point x="446" y="242"/>
      <point x="430" y="307"/>
      <point x="428" y="367" type="curve"/>
      <point x="93" y="367" type="line"/>
      <point x="93" y="90"/>
      <point x="254" y="-19"/>
      <point x="522" y="-19" type="curve" smooth="yes"/>
      <point x="776" y="-19"/>
      <point x="928" y="134"/>
      <point x="928" y="313" type="curve" smooth="yes"/>
      <point x="928" y="424"/>
      <point x="867" y="499"/>
      <point x="789" y="557" type="curve"/>
      <point x="884" y="628"/>
      <point x="927" y="710"/>
      <point x="927" y="792" type="curve" smooth="yes"/>
      <point x="927" y="909"/>
      <point x="840" y="1024"/>
      <point x="690" y="1101" type="curve" smooth="yes"/>
      <point x="564" y="1166"/>
      <point x="434" y="1212"/>
      <point x="434" y="1264" type="curve" smooth="yes"/>
      <point x="434" y="1311"/>
      <point x="470" y="1346"/>
      <point x="530" y="1346" type="curve" smooth="yes"/>
      <point x="605" y="1346"/>
      <point x="621" y="1281"/>
      <point x="623" y="1221" type="curve"/>
      <point x="928" y="1221" type="line"/>
      <point x="928" y="1498"/>
      <point x="775" y="1607"/>
      <point x="519" y="1607" type="curve" smooth="yes"/>
      <point x="265" y="1607"/>
      <point x="113" y="1454"/>
      <point x="113" y="1275" type="curve" smooth="yes"/>
      <point x="113" y="1164"/>
      <point x="173" y="1088"/>
      <point x="251" y="1031" type="curve"/>
      <point x="157" y="960"/>
      <point x="113" y="877"/>
      <point x="113" y="795" type="curve" smooth="yes"/>
      <point x="113" y="679"/>
      <point x="199" y="564"/>
      <point x="349" y="488" type="curve" smooth="yes"/>
      <point x="476" y="423"/>
      <point x="607" y="377"/>
    </contour>
    <contour>
      <point x="611" y="681" type="curve"/>
      <point x="488" y="721"/>
      <point x="400" y="759"/>
      <point x="400" y="813" type="curve" smooth="yes"/>
      <point x="400" y="842"/>
      <point x="415" y="876"/>
      <point x="450" y="917" type="curve"/>
      <point x="568" y="877"/>
      <point x="652" y="834"/>
      <point x="652" y="780" type="curve" smooth="yes"/>
      <point x="652" y="750"/>
      <point x="639" y="718"/>
    </contour>
  </outline>
</glyph>
<glyph name="copyright" format="1">
  <advance width="1406"/>
  <unicode hex="00A9"/>
  <outline>
    <contour>
      <point x="205" y="862" type="curve" smooth="yes"/>
      <point x="205" y="1152"/>
      <point x="429" y="1390"/>
      <point x="703" y="1390" type="curve" smooth="yes"/>
      <point x="977" y="1390"/>
      <point x="1201" y="1152"/>
      <point x="1201" y="862" type="curve" smooth="yes"/>
      <point x="1201" y="572"/>
      <point x="977" y="334"/>
      <point x="703" y="334" type="curve" smooth="yes"/>
      <point x="429" y="334"/>
      <point x="205" y="572"/>
    </contour>
    <contour>
      <point x="46" y="862" type="curve" smooth="yes"/>
      <point x="46" y="499"/>
      <point x="340" y="205"/>
      <point x="703" y="205" type="curve" smooth="yes"/>
      <point x="1066" y="205"/>
      <point x="1360" y="499"/>
      <point x="1360" y="862" type="curve" smooth="yes"/>
      <point x="1360" y="1225"/>
      <point x="1066" y="1519"/>
      <point x="703" y="1519" type="curve" smooth="yes"/>
      <point x="340" y="1519"/>
      <point x="46" y="1225"/>
    </contour>
    <contour>
      <point x="940" y="806" type="line"/>
      <point x="747" y="806" type="line"/>
      <point x="747" y="657" type="line" smooth="yes"/>
      <point x="747" y="603"/>
      <point x="720" y="592"/>
      <point x="701" y="592" type="curve" smooth="yes"/>
      <point x="674" y="592"/>
      <point x="657" y="624"/>
      <point x="657" y="657" type="curve" smooth="yes"/>
      <point x="657" y="1066" type="line" smooth="yes"/>
      <point x="657" y="1098"/>
      <point x="661" y="1130"/>
      <point x="701" y="1130" type="curve" smooth="yes"/>
      <point x="740" y="1130"/>
      <point x="747" y="1088"/>
      <point x="747" y="1053" type="curve" smooth="yes"/>
      <point x="747" y="952" type="line"/>
      <point x="936" y="952" type="line"/>
      <point x="936" y="1105" type="line" smooth="yes"/>
      <point x="936" y="1243"/>
      <point x="830" y="1305"/>
      <point x="701" y="1305" type="curve" smooth="yes"/>
      <point x="538" y="1305"/>
      <point x="467" y="1218"/>
      <point x="467" y="1049" type="curve" smooth="yes"/>
      <point x="467" y="648" type="line" smooth="yes"/>
      <point x="467" y="499"/>
      <point x="567" y="424"/>
      <point x="697" y="424" type="curve" smooth="yes"/>
      <point x="843" y="424"/>
      <point x="940" y="486"/>
      <point x="940" y="643" type="curve" smooth="yes"/>
    </contour>
  </outline>
</glyph>
<glyph name="guillemotleft" format="1">
  <advance width="1194"/>
  <unicode hex="00AB"/>
  <outline>
    <contour>
      <point x="618" y="545" type="line"/>
      <point x="618" y="959" type="line"/>
      <point x="1128" y="1230" type="line"/>
      <point x="1128" y="871" type="line"/>
      <point x="816" y="749" type="line"/>
      <point x="1128" y="618" type="line"/>
      <point x="1128" y="260" type="line"/>
    </contour>
    <contour>
      <point x="40" y="545" type="line"/>
      <point x="40" y="959" type="line"/>
      <point x="550" y="1230" type="line"/>
      <point x="550" y="871" type="line"/>
      <point x="238" y="749" type="line"/>
      <point x="550" y="618" type="line"/>
      <point x="550" y="260" type="line"/>
    </contour>
  </outline>
</glyph>
<glyph name="logicalnot" format="1">
  <advance width="858"/>
  <unicode hex="00AC"/>
  <outline>
    <contour>
      <point x="63" y="979" type="line"/>
      <point x="63" y="801" type="line"/>
      <point x="481" y="801" type="line"/>
      <point x="481" y="439" type="line"/>
      <point x="792" y="439" type="line"/>
      <point x="792" y="979" type="line"/>
    </contour>
  </outline>
</glyph>
<glyph name="registered" format="1">
  <advance width="1406"/>
  <unicode hex="00AE"/>
  <outline>
    <contour>
      <point x="671" y="818" type="line"/>
      <point x="717" y="818"/>
      <point x="743" y="817"/>
      <point x="743" y="762" type="curve" smooth="yes"/>
      <point x="743" y="430" type="line"/>
      <point x="927" y="430" type="line"/>
      <point x="927" y="751" type="line" smooth="yes"/>
      <point x="927" y="796"/>
      <point x="921" y="859"/>
      <point x="848" y="873" type="curve"/>
      <point x="939" y="901"/>
      <point x="941" y="982"/>
      <point x="941" y="1043" type="curve" smooth="yes"/>
      <point x="941" y="1181"/>
      <point x="921" y="1282"/>
      <point x="770" y="1282" type="curve" smooth="yes"/>
      <point x="481" y="1282" type="line"/>
      <point x="481" y="430" type="line"/>
      <point x="671" y="430" type="line"/>
    </contour>
    <contour>
      <point x="672" y="1124" type="line"/>
      <point x="671" y="1124" type="line"/>
      <point x="740" y="1124"/>
      <point x="757" y="1115"/>
      <point x="757" y="1043" type="curve" smooth="yes"/>
      <point x="757" y="1015"/>
      <point x="755" y="965"/>
      <point x="720" y="965" type="curve" smooth="yes"/>
      <point x="672" y="965" type="line"/>
    </contour>
    <contour>
      <point x="205" y="862" type="curve" smooth="yes"/>
      <point x="205" y="1152"/>
      <point x="429" y="1390"/>
      <point x="703" y="1390" type="curve" smooth="yes"/>
      <point x="977" y="1390"/>
      <point x="1201" y="1152"/>
      <point x="1201" y="862" type="curve" smooth="yes"/>
      <point x="1201" y="572"/>
      <point x="977" y="334"/>
      <point x="703" y="334" type="curve" smooth="yes"/>
      <point x="429" y="334"/>
      <point x="205" y="572"/>
    </contour>
    <contour>
      <point x="46" y="862" type="curve" smooth="yes"/>
      <point x="46" y="499"/>
      <point x="340" y="205"/>
      <point x="703" y="205" type="curve" smooth="yes"/>
      <point x="1066" y="205"/>
      <point x="1360" y="499"/>
      <point x="1360" y="862" type="curve" smooth="yes"/>
      <point x="1360" y="1225"/>
      <point x="1066" y="1519"/>
      <point x="703" y="1519" type="curve" smooth="yes"/>
      <point x="340" y="1519"/>
      <point x="46" y="1225"/>
    </contour>
  </outline>
</glyph>
<glyph name="degree" format="1">
  <advance width="804"/>
  <unicode hex="00B0"/>
  <outline>
    <contour>
      <point x="261" y="1269" type="curve" smooth="yes"/>
      <point x="261" y="1345"/>
      <point x="305" y="1426"/>
      <point x="403" y="1426" type="curve" smooth="yes"/>
      <point x="501" y="1426"/>
      <point x="545" y="1345"/>
      <point x="545" y="1269" type="curve" smooth="yes"/>
      <point x="545" y="1193"/>
      <point x="501" y="1112"/>
      <point x="403" y="1112" type="curve" smooth="yes"/>
      <point x="305" y="1112"/>
      <point x="261" y="1193"/>
    </contour>
    <contour>
      <point x="49" y="1269" type="curve" smooth="yes"/>
      <point x="49" y="1062"/>
      <point x="183" y="931"/>
      <point x="402" y="931" type="curve" smooth="yes"/>
      <point x="622" y="931"/>
      <point x="756" y="1062"/>
      <point x="756" y="1269" type="curve" smooth="yes"/>
      <point x="756" y="1476"/>
      <point x="622" y="1607"/>
      <point x="402" y="1607" type="curve" smooth="yes"/>
      <point x="183" y="1607"/>
      <point x="49" y="1476"/>
    </contour>
  </outline>
</glyph>
<glyph name="paragraph" format="1">
  <advance width="981"/>
  <unicode hex="00B6"/>
  <outline>
    <contour>
      <point x="357" y="0" type="line"/>
      <point x="603" y="0" type="line"/>
      <point x="603" y="1287" type="line"/>
      <point x="697" y="1287" type="line"/>
      <point x="697" y="0" type="line"/>
      <point x="936" y="0" type="line"/>
      <point x="936" y="1593" type="line"/>
      <point x="561" y="1593" type="line" smooth="yes"/>
      <point x="230" y="1593"/>
      <point x="10" y="1501"/>
      <point x="10" y="1210" type="curve" smooth="yes"/>
      <point x="10" y="984"/>
      <point x="82" y="828"/>
      <point x="357" y="797" type="curve"/>
    </contour>
  </outline>
</glyph>
<glyph name="cedilla" format="1">
  <advance width="1015"/>
  <unicode hex="00B8"/>
  <outline>
    <contour>
      <point x="306" y="-591" type="line"/>
      <point x="371" y="-618"/>
      <point x="439" y="-631"/>
      <point x="504" y="-631" type="curve" smooth="yes"/>
      <point x="691" y="-631"/>
      <point x="852" y="-522"/>
      <point x="852" y="-330" type="curve" smooth="yes"/>
      <point x="852" y="-213"/>
      <point x="765" y="-100"/>
      <point x="588" y="-76" type="curve"/>
      <point x="588" y="0" type="line"/>
      <point x="377" y="0" type="line"/>
      <point x="377" y="-106" type="line"/>
      <point x="483" y="-128"/>
      <point x="537" y="-210"/>
      <point x="537" y="-279" type="curve" smooth="yes"/>
      <point x="537" y="-360"/>
      <point x="488" y="-391"/>
      <point x="422" y="-391" type="curve" smooth="yes"/>
      <point x="386" y="-391"/>
      <point x="346" y="-382"/>
      <point x="306" y="-368" type="curve"/>
    </contour>
  </outline>
</glyph>
<glyph name="guillemotright" format="1">
  <advance width="1194"/>
  <unicode hex="00BB"/>
  <outline>
    <contour>
      <point x="577" y="545" type="line"/>
      <point x="577" y="959" type="line"/>
      <point x="67" y="1230" type="line"/>
      <point x="67" y="871" type="line"/>
      <point x="379" y="749" type="line"/>
      <point x="67" y="618" type="line"/>
      <point x="67" y="260" type="line"/>
    </contour>
    <contour>
      <point x="1154" y="545" type="line"/>
      <point x="1154" y="959" type="line"/>
      <point x="644" y="1230" type="line"/>
      <point x="644" y="871" type="line"/>
      <point x="956" y="749" type="line"/>
      <point x="644" y="618" type="line"/>
      <point x="644" y="260" type="line"/>
    </contour>
  </outline>
</glyph>
<glyph name="AE" format="1">
  <advance width="1361"/>
  <unicode hex="00C6"/>
  <outline>
    <contour>
      <point x="629" y="0" type="line"/>
      <point x="1296" y="0" type="line"/>
      <point x="1296" y="311" type="line"/>
      <point x="987" y="311" type="line"/>
      <point x="987" y="674" type="line"/>
      <point x="1259" y="674" type="line"/>
      <point x="1259" y="973" type="line"/>
      <point x="987" y="973" type="line"/>
      <point x="987" y="1284" type="line"/>
      <point x="1273" y="1284" type="line"/>
      <point x="1273" y="1593" type="line"/>
      <point x="361" y="1593" type="line"/>
      <point x="40" y="0" type="line"/>
      <point x="381" y="0" type="line"/>
      <point x="420" y="240" type="line"/>
      <point x="628" y="240" type="line"/>
      <point x="628" y="120" type="line"/>
    </contour>
    <contour>
      <point x="624" y="1294" type="line"/>
      <point x="624" y="530" type="line"/>
      <point x="466" y="530" type="line"/>
      <point x="596" y="1294" type="line"/>
    </contour>
  </outline>
</glyph>
<glyph name="multiply" format="1">
  <advance width="700"/>
  <unicode hex="00D7"/>
  <outline>
    <contour>
      <point x="203" y="314" type="line"/>
      <point x="350" y="461" type="line"/>
      <point x="497" y="314" type="line"/>
      <point x="661" y="478" type="line"/>
      <point x="514" y="625" type="line"/>
      <point x="661" y="772" type="line"/>
      <point x="497" y="936" type="line"/>
      <point x="350" y="789" type="line"/>
      <point x="203" y="936" type="line"/>
      <point x="39" y="772" type="line"/>
      <point x="186" y="625" type="line"/>
      <point x="39" y="478" type="line"/>
    </contour>
  </outline>
</glyph>
<glyph name="Oslash" format="1">
  <advance width="1004"/>
  <unicode hex="00D8"/>
  <outline>
    <contour>
      <point x="506" y="-18" type="curve" smooth="yes"/>
      <point x="448" y="-18"/>
      <point x="396" y="-11"/>
      <point x="351" y="1" type="curve"/>
      <point x="317" y="-120" type="line"/>
      <point x="217" y="-92" type="line"/>
      <point x="254" y="42" type="line"/>
      <point x="126" y="119"/>
      <point x="72" y="262"/>
      <point x="72" y="430" type="curve" smooth="yes"/>
      <point x="72" y="1189" type="line" smooth="yes"/>
      <point x="72" y="1447"/>
      <point x="207" y="1607"/>
      <point x="506" y="1607" type="curve" smooth="yes"/>
      <point x="573" y="1607"/>
      <point x="631" y="1599"/>
      <point x="682" y="1584" type="curve"/>
      <point x="714" y="1699" type="line"/>
      <point x="815" y="1671" type="line"/>
      <point x="778" y="1540" type="line"/>
      <point x="888" y="1470"/>
      <point x="940" y="1348"/>
      <point x="940" y="1189" type="curve" smooth="yes"/>
      <point x="940" y="430" type="line" smooth="yes"/>
      <point x="940" y="178"/>
      <point x="819" y="-18"/>
    </contour>
    <contour>
      <point x="506" y="1295" type="curve" smooth="yes"/>
      <point x="412" y="1295"/>
      <point x="420" y="1178"/>
      <point x="420" y="1117" type="curve" smooth="yes"/>
      <point x="420" y="639" type="line"/>
      <point x="582" y="1222" type="line"/>
      <point x="574" y="1263"/>
      <point x="554" y="1295"/>
    </contour>
    <contour>
      <point x="506" y="297" type="curve" smooth="yes"/>
      <point x="590" y="297"/>
      <point x="586" y="412"/>
      <point x="586" y="473" type="curve" smooth="yes"/>
      <point x="586" y="846" type="line"/>
      <point x="443" y="333" type="line"/>
      <point x="456" y="311"/>
      <point x="475" y="297"/>
    </contour>
  </outline>
</glyph>
<glyph name="germandbls" format="1">
  <advance width="1026"/>
  <unicode hex="00DF"/>
  <outline>
    <contour>
      <point x="489" y="1593" type="curve" smooth="yes"/>
      <point x="249" y="1593"/>
      <point x="64" y="1503"/>
      <point x="64" y="1229" type="curve" smooth="yes"/>
      <point x="64" y="0" type="line"/>
      <point x="414" y="0" type="line"/>
      <point x="414" y="1270" type="line" smooth="yes"/>
      <point x="414" y="1290"/>
      <point x="418" y="1346"/>
      <point x="489" y="1346" type="curve" smooth="yes"/>
      <point x="560" y="1346"/>
      <point x="564" y="1290"/>
      <point x="564" y="1270" type="curve" smooth="yes"/>
      <point x="564" y="1112" type="line" smooth="yes"/>
      <point x="564" y="1065"/>
      <point x="562" y="993"/>
      <point x="480" y="993" type="curve"/>
      <point x="480" y="745" type="line"/>
      <point x="594" y="745"/>
      <point x="627" y="700"/>
      <point x="627" y="598" type="curve" smooth="yes"/>
      <point x="627" y="399" type="line" smooth="yes"/>
      <point x="627" y="312"/>
      <point x="567" y="281"/>
      <point x="484" y="281" type="curve"/>
      <point x="484" y="0" type="line"/>
      <point x="588" y="0" type="line" smooth="yes"/>
      <point x="895" y="0"/>
      <point x="975" y="181"/>
      <point x="975" y="476" type="curve" smooth="yes"/>
      <point x="975" y="615"/>
      <point x="966" y="837"/>
      <point x="765" y="887" type="curve"/>
      <point x="923" y="935"/>
      <point x="915" y="1118"/>
      <point x="915" y="1229" type="curve" smooth="yes"/>
      <point x="915" y="1503"/>
      <point x="729" y="1593"/>
    </contour>
  </outline>
</glyph>
<glyph name="ae" format="1">
  <advance width="1524"/>
  <unicode hex="00E6"/>
  <outline>
    <contour>
      <point x="1054" y="-18" type="curve" smooth="yes"/>
      <point x="1390" y="-18"/>
      <point x="1464" y="182"/>
      <point x="1464" y="494" type="curve" smooth="yes"/>
      <point x="1464" y="579" type="line"/>
      <point x="1108" y="579" type="line"/>
      <point x="1109" y="575"/>
      <point x="1110" y="501"/>
      <point x="1110" y="483" type="curve" smooth="yes"/>
      <point x="1110" y="391"/>
      <point x="1107" y="260"/>
      <point x="1026" y="260" type="curve" smooth="yes"/>
      <point x="940" y="260"/>
      <point x="939" y="434"/>
      <point x="939" y="494" type="curve" smooth="yes"/>
      <point x="939" y="704" type="line"/>
      <point x="1460" y="704" type="line"/>
      <point x="1463" y="761"/>
      <point x="1464" y="890"/>
      <point x="1464" y="983" type="curve" smooth="yes"/>
      <point x="1464" y="1092" type="line" smooth="yes"/>
      <point x="1464" y="1395"/>
      <point x="1301" y="1518"/>
      <point x="1032" y="1518" type="curve" smooth="yes"/>
      <point x="926" y="1518"/>
      <point x="826" y="1489"/>
      <point x="765" y="1396" type="curve"/>
      <point x="701" y="1491"/>
      <point x="603" y="1518"/>
      <point x="519" y="1518" type="curve" smooth="yes"/>
      <point x="195" y="1518"/>
      <point x="78" y="1383"/>
      <point x="78" y="1105" type="curve" smooth="yes"/>
      <point x="78" y="1089"/>
      <point x="78" y="1073"/>
      <point x="79" y="1056" type="curve"/>
      <point x="427" y="1056" type="line"/>
      <point x="427" y="1157" type="line" smooth="yes"/>
      <point x="427" y="1204"/>
      <point x="448" y="1239"/>
      <point x="501" y="1239" type="curve" smooth="yes"/>
      <point x="577" y="1239"/>
      <point x="577" y="1167"/>
      <point x="578" y="980" type="curve"/>
      <point x="201" y="851"/>
      <point x="56" y="816"/>
      <point x="56" y="430" type="curve" smooth="yes"/>
      <point x="56" y="49"/>
      <point x="323" y="-18"/>
      <point x="467" y="-18" type="curve" smooth="yes"/>
      <point x="699" y="-18"/>
      <point x="766" y="148"/>
      <point x="766" y="148" type="curve"/>
      <point x="766" y="148"/>
      <point x="835" y="-18"/>
    </contour>
    <contour>
      <point x="421" y="570" type="line" smooth="yes"/>
      <point x="421" y="648"/>
      <point x="444" y="721"/>
      <point x="577" y="774" type="curve"/>
      <point x="577" y="379" type="line" smooth="yes"/>
      <point x="577" y="336"/>
      <point x="564" y="262"/>
      <point x="501" y="262" type="curve" smooth="yes"/>
      <point x="450" y="262"/>
      <point x="421" y="299"/>
      <point x="421" y="395" type="curve" smooth="yes"/>
    </contour>
    <contour>
      <point x="1028" y="1249" type="curve" smooth="yes"/>
      <point x="1098" y="1249"/>
      <point x="1108" y="1151"/>
      <point x="1108" y="1087" type="curve" smooth="yes"/>
      <point x="1108" y="931" type="line"/>
      <point x="939" y="931" type="line"/>
      <point x="939" y="1052" type="line" smooth="yes"/>
      <point x="939" y="1211"/>
      <point x="961" y="1249"/>
    </contour>
  </outline>
</glyph>
<glyph name="oslash" format="1">
  <advance width="1036"/>
  <unicode hex="00F8"/>
  <outline>
    <contour>
      <point x="520" y="-18" type="curve" smooth="yes"/>
      <point x="458" y="-18"/>
      <point x="403" y="-11"/>
      <point x="353" y="2" type="curve"/>
      <point x="304" y="-173" type="line"/>
      <point x="204" y="-145" type="line"/>
      <point x="256" y="42" type="line"/>
      <point x="136" y="113"/>
      <point x="72" y="247"/>
      <point x="72" y="449" type="curve" smooth="yes"/>
      <point x="72" y="1051" type="line" smooth="yes"/>
      <point x="72" y="1337"/>
      <point x="242" y="1518"/>
      <point x="520" y="1518" type="curve" smooth="yes"/>
      <point x="572" y="1518"/>
      <point x="620" y="1511"/>
      <point x="664" y="1499" type="curve"/>
      <point x="713" y="1672" type="line"/>
      <point x="814" y="1644" type="line"/>
      <point x="762" y="1459" type="line"/>
      <point x="894" y="1384"/>
      <point x="969" y="1241"/>
      <point x="969" y="1051" type="curve" smooth="yes"/>
      <point x="969" y="449" type="line" smooth="yes"/>
      <point x="969" y="131"/>
      <point x="809" y="-18"/>
    </contour>
    <contour>
      <point x="520" y="260" type="curve" smooth="yes"/>
      <point x="565" y="260"/>
      <point x="604" y="289"/>
      <point x="604" y="375" type="curve" smooth="yes"/>
      <point x="604" y="895" type="line"/>
      <point x="443" y="321" type="line"/>
      <point x="456" y="276"/>
      <point x="486" y="260"/>
    </contour>
    <contour>
      <point x="520" y="1239" type="curve" smooth="yes"/>
      <point x="465" y="1239"/>
      <point x="436" y="1194"/>
      <point x="436" y="1108" type="curve" smooth="yes"/>
      <point x="436" y="683" type="line"/>
      <point x="582" y="1206" type="line"/>
      <point x="568" y="1228"/>
      <point x="547" y="1239"/>
    </contour>
  </outline>
</glyph>
<glyph name="dotlessi" format="1">
  <advance width="514"/>
  <unicode hex="0131"/>
  <outline>
    <contour>
      <point x="78" y="0" type="line"/>
      <point x="436" y="0" type="line"/>
      <point x="436" y="1500" type="line"/>
      <point x="78" y="1500" type="line"/>
    </contour>
  </outline>
</glyph>
<glyph name="Lslash" format="1">
  <advance width="858"/>
  <unicode hex="0141"/>
  <outline>
    <contour>
      <point x="0" y="509" type="line"/>
      <point x="687" y="741" type="line"/>
      <point x="687" y="973" type="line"/>
      <point x="0" y="741" type="line"/>
    </contour>
    <component base="L"/>
  </outline>
</glyph>
<glyph name="lslash" format="1">
  <advance width="510"/>
  <unicode hex="0142"/>
  <outline>
    <contour>
      <point x="-3" y="509" type="line"/>
      <point x="513" y="741" type="line"/>
      <point x="513" y="973" type="line"/>
      <point x="-3" y="741" type="line"/>
    </contour>
    <component base="l"/>
  </outline>
</glyph>
<glyph name="OE" format="1">
  <advance width="1367"/>
  <unicode hex="0152"/>
  <outline>
    <contour>
      <point x="1302" y="0" type="line"/>
      <point x="1302" y="311" type="line"/>
      <point x="942" y="311" type="line"/>
      <point x="942" y="674" type="line"/>
      <point x="1265" y="674" type="line"/>
      <point x="1265" y="973" type="line"/>
      <point x="942" y="973" type="line"/>
      <point x="942" y="1284" type="line"/>
      <point x="1279" y="1284" type="line"/>
      <point x="1279" y="1593" type="line"/>
      <point x="609" y="1593" type="line" smooth="yes"/>
      <point x="267" y="1593"/>
      <point x="61" y="1485"/>
      <point x="61" y="1189" type="curve" smooth="yes"/>
      <point x="61" y="430" type="line" smooth="yes"/>
      <point x="61" y="139"/>
      <point x="251" y="0"/>
      <point x="617" y="0" type="curve" smooth="yes"/>
    </contour>
    <contour>
      <point x="409" y="477" type="curve"/>
      <point x="409" y="1147" type="line" smooth="yes"/>
      <point x="409" y="1249"/>
      <point x="466" y="1289"/>
      <point x="530" y="1289" type="curve" smooth="yes"/>
      <point x="548" y="1289"/>
      <point x="567" y="1286"/>
      <point x="585" y="1280" type="curve"/>
      <point x="585" y="322" type="line"/>
      <point x="565" y="313"/>
      <point x="544" y="308"/>
      <point x="524" y="308" type="curve" smooth="yes"/>
      <point x="463" y="308"/>
      <point x="409" y="355"/>
    </contour>
  </outline>
</glyph>
<glyph name="oe" format="1">
  <advance width="1535"/>
  <unicode hex="0153"/>
  <outline>
    <contour>
      <point x="509" y="-18" type="curve" smooth="yes"/>
      <point x="618" y="-18"/>
      <point x="708" y="10"/>
      <point x="779" y="69" type="curve"/>
      <point x="838" y="15"/>
      <point x="915" y="-18"/>
      <point x="1025" y="-18" type="curve" smooth="yes"/>
      <point x="1393" y="-18"/>
      <point x="1475" y="182"/>
      <point x="1475" y="494" type="curve" smooth="yes"/>
      <point x="1475" y="579" type="line"/>
      <point x="1119" y="579" type="line"/>
      <point x="1120" y="575"/>
      <point x="1121" y="501"/>
      <point x="1121" y="483" type="curve" smooth="yes"/>
      <point x="1121" y="393"/>
      <point x="1118" y="260"/>
      <point x="1037" y="260" type="curve" smooth="yes"/>
      <point x="959" y="260"/>
      <point x="950" y="345"/>
      <point x="950" y="427" type="curve" smooth="yes"/>
      <point x="950" y="450"/>
      <point x="951" y="473"/>
      <point x="951" y="494" type="curve" smooth="yes"/>
      <point x="951" y="704" type="line"/>
      <point x="1471" y="704" type="line"/>
      <point x="1474" y="761"/>
      <point x="1475" y="890"/>
      <point x="1475" y="983" type="curve" smooth="yes"/>
      <point x="1475" y="1092" type="line" smooth="yes"/>
      <point x="1475" y="1395"/>
      <point x="1312" y="1518"/>
      <point x="1043" y="1518" type="curve" smooth="yes"/>
      <point x="934" y="1518"/>
      <point x="842" y="1486"/>
      <point x="774" y="1422" type="curve"/>
      <point x="703" y="1483"/>
      <point x="614" y="1518"/>
      <point x="509" y="1518" type="curve" smooth="yes"/>
      <point x="231" y="1518"/>
      <point x="61" y="1337"/>
      <point x="61" y="1051" type="curve" smooth="yes"/>
      <point x="61" y="449" type="line" smooth="yes"/>
      <point x="61" y="131"/>
      <point x="220" y="-18"/>
    </contour>
    <contour>
      <point x="509" y="1239" type="curve" smooth="yes"/>
      <point x="564" y="1239"/>
      <point x="593" y="1194"/>
      <point x="593" y="1108" type="curve" smooth="yes"/>
      <point x="593" y="375" type="line" smooth="yes"/>
      <point x="593" y="289"/>
      <point x="554" y="260"/>
      <point x="509" y="260" type="curve" smooth="yes"/>
      <point x="464" y="260"/>
      <point x="425" y="289"/>
      <point x="425" y="375" type="curve" smooth="yes"/>
      <point x="425" y="1108" type="line" smooth="yes"/>
      <point x="425" y="1194"/>
      <point x="454" y="1239"/>
    </contour>
    <contour>
      <point x="1039" y="1249" type="curve" smooth="yes"/>
      <point x="1109" y="1249"/>
      <point x="1119" y="1151"/>
      <point x="1119" y="1087" type="curve" smooth="yes"/>
      <point x="1119" y="931" type="line"/>
      <point x="951" y="931" type="line"/>
      <point x="951" y="972"/>
      <point x="949" y="1016"/>
      <point x="949" y="1057" type="curve" smooth="yes"/>
      <point x="949" y="1160"/>
      <point x="960" y="1249"/>
    </contour>
  </outline>
</glyph>
<glyph name="florin" format="1">
  <advance width="627"/>
  <unicode hex="0192"/>
  <outline>
    <contour>
      <point x="493" y="986" type="line"/>
      <point x="584" y="986" type="line"/>
      <point x="584" y="1263" type="line"/>
      <point x="486" y="1263" type="line"/>
      <point x="486" y="1269"/>
      <point x="486" y="1275"/>
      <point x="486" y="1281" type="curve" smooth="yes"/>
      <point x="486" y="1330"/>
      <point x="492" y="1362"/>
      <point x="541" y="1362" type="curve" smooth="yes"/>
      <point x="553" y="1362"/>
      <point x="567" y="1360"/>
      <point x="584" y="1357" type="curve"/>
      <point x="584" y="1578" type="line"/>
      <point x="584" y="1578"/>
      <point x="507" y="1607"/>
      <point x="380" y="1607" type="curve" smooth="yes"/>
      <point x="179" y="1607"/>
      <point x="138" y="1482"/>
      <point x="138" y="1365" type="curve" smooth="yes"/>
      <point x="138" y="1263" type="line"/>
      <point x="53" y="1263" type="line"/>
      <point x="53" y="986" type="line"/>
      <point x="138" y="986" type="line"/>
      <point x="145" y="297" type="line" smooth="yes"/>
      <point x="145" y="291"/>
      <point x="145" y="285"/>
      <point x="145" y="279" type="curve" smooth="yes"/>
      <point x="145" y="230"/>
      <point x="139" y="198"/>
      <point x="90" y="198" type="curve" smooth="yes"/>
      <point x="78" y="198"/>
      <point x="64" y="200"/>
      <point x="47" y="203" type="curve"/>
      <point x="47" y="-18" type="line"/>
      <point x="47" y="-18"/>
      <point x="124" y="-47"/>
      <point x="251" y="-47" type="curve" smooth="yes"/>
      <point x="452" y="-47"/>
      <point x="493" y="78"/>
      <point x="493" y="195" type="curve" smooth="yes"/>
    </contour>
  </outline>
</glyph>
<glyph name="breve" format="1">
  <advance width="1015"/>
  <unicode hex="02D8"/>
  <outline>
    <contour>
      <point x="503" y="1832" type="curve" smooth="yes"/>
      <point x="437" y="1832"/>
      <point x="388" y="1863"/>
      <point x="388" y="1944" type="curve" smooth="yes"/>
      <point x="388" y="1945"/>
      <point x="72" y="1945"/>
      <point x="72" y="1945" type="curve"/>
      <point x="70" y="1931"/>
      <point x="69" y="1916"/>
      <point x="69" y="1903" type="curve" smooth="yes"/>
      <point x="69" y="1712"/>
      <point x="231" y="1592"/>
      <point x="501" y="1592" type="curve" smooth="yes"/>
      <point x="777" y="1592"/>
      <point x="936" y="1714"/>
      <point x="936" y="1910" type="curve" smooth="yes"/>
      <point x="936" y="1921"/>
      <point x="935" y="1933"/>
      <point x="934" y="1945" type="curve"/>
      <point x="934" y="1945"/>
      <point x="618" y="1945"/>
      <point x="618" y="1944" type="curve" smooth="yes"/>
      <point x="618" y="1863"/>
      <point x="569" y="1832"/>
    </contour>
  </outline>
</glyph>
<glyph name="ring" format="1">
  <advance width="804"/>
  <unicode hex="02DA"/>
  <outline>
    <contour>
      <point x="261" y="450" type="curve" smooth="yes"/>
      <point x="261" y="526"/>
      <point x="305" y="607"/>
      <point x="403" y="607" type="curve" smooth="yes"/>
      <point x="501" y="607"/>
      <point x="545" y="526"/>
      <point x="545" y="450" type="curve" smooth="yes"/>
      <point x="545" y="374"/>
      <point x="501" y="293"/>
      <point x="403" y="293" type="curve" smooth="yes"/>
      <point x="305" y="293"/>
      <point x="261" y="374"/>
    </contour>
    <contour>
      <point x="49" y="450" type="curve" smooth="yes"/>
      <point x="49" y="243"/>
      <point x="183" y="112"/>
      <point x="402" y="112" type="curve" smooth="yes"/>
      <point x="622" y="112"/>
      <point x="756" y="243"/>
      <point x="756" y="450" type="curve" smooth="yes"/>
      <point x="756" y="657"/>
      <point x="622" y="788"/>
      <point x="402" y="788" type="curve" smooth="yes"/>
      <point x="183" y="788"/>
      <point x="49" y="657"/>
    </contour>
  </outline>
</glyph>
<glyph name="ogonek" format="1">
  <advance width="1015"/>
  <unicode hex="02DB"/>
  <outline>
    <contour>
      <point x="852" y="-591" type="line"/>
      <point x="787" y="-618"/>
      <point x="719" y="-631"/>
      <point x="654" y="-631" type="curve" smooth="yes"/>
      <point x="467" y="-631"/>
      <point x="306" y="-522"/>
      <point x="306" y="-330" type="curve" smooth="yes"/>
      <point x="306" y="-213"/>
      <point x="393" y="-100"/>
      <point x="570" y="0" type="curve"/>
      <point x="781" y="0" type="line"/>
      <point x="675" y="-128"/>
      <point x="621" y="-210"/>
      <point x="621" y="-279" type="curve" smooth="yes"/>
      <point x="621" y="-360"/>
      <point x="670" y="-391"/>
      <point x="736" y="-391" type="curve" smooth="yes"/>
      <point x="772" y="-391"/>
      <point x="812" y="-382"/>
      <point x="852" y="-368" type="curve"/>
    </contour>
  </outline>
</glyph>
<glyph name="tilde" format="1">
  <advance width="1015"/>
  <unicode hex="02DC"/>
  <outline>
    <contour>
      <point x="370" y="1712" type="curve" smooth="yes"/>
      <point x="350" y="1712"/>
      <point x="332" y="1692"/>
      <point x="312" y="1623" type="curve"/>
      <point x="90" y="1729" type="line"/>
      <point x="159" y="1898"/>
      <point x="245" y="1988"/>
      <point x="370" y="1988" type="curve" smooth="yes"/>
      <point x="461" y="1988"/>
      <point x="533" y="1880"/>
      <point x="613" y="1880" type="curve" smooth="yes"/>
      <point x="632" y="1880"/>
      <point x="652" y="1898"/>
      <point x="672" y="1959" type="curve"/>
      <point x="904" y="1903" type="line"/>
      <point x="832" y="1708"/>
      <point x="741" y="1602"/>
      <point x="612" y="1602" type="curve" smooth="yes"/>
      <point x="507" y="1602"/>
      <point x="447" y="1712"/>
    </contour>
  </outline>
</glyph>
<glyph name="hungarumlaut" format="1">
  <advance width="1300"/>
  <unicode hex="02DD"/>
  <outline>
    <contour>
      <point x="484" y="1236" type="line"/>
      <point x="785" y="1665" type="line"/>
      <point x="592" y="1773" type="line"/>
      <point x="371" y="1294" type="line"/>
    </contour>
    <contour>
      <point x="786" y="1236" type="line"/>
      <point x="1087" y="1665" type="line"/>
      <point x="894" y="1773" type="line"/>
      <point x="673" y="1294" type="line"/>
    </contour>
  </outline>
</glyph>
<glyph name="uni03A9" format="1">
  <advance width="1014"/>
  <unicode hex="03A9"/>
  <outline>
    <contour>
      <point x="507" y="1607" type="curve" smooth="yes"/>
      <point x="215" y="1607"/>
      <point x="83" y="1447"/>
      <point x="83" y="1189" type="curve" smooth="yes"/>
      <point x="83" y="710" type="line" smooth="yes"/>
      <point x="83" y="523"/>
      <point x="113" y="348"/>
      <point x="180" y="246" type="curve"/>
      <point x="58" y="246" type="line"/>
      <point x="58" y="0" type="line"/>
      <point x="474" y="0" type="line"/>
      <point x="474" y="247" type="line"/>
      <point x="429" y="272"/>
      <point x="422" y="260"/>
      <point x="422" y="581" type="curve" smooth="yes"/>
      <point x="422" y="1211" type="line" smooth="yes"/>
      <point x="422" y="1272"/>
      <point x="432" y="1335"/>
      <point x="507" y="1335" type="curve" smooth="yes"/>
      <point x="582" y="1335"/>
      <point x="592" y="1272"/>
      <point x="592" y="1211" type="curve" smooth="yes"/>
      <point x="592" y="581" type="line" smooth="yes"/>
      <point x="592" y="260"/>
      <point x="585" y="272"/>
      <point x="540" y="247" type="curve"/>
      <point x="540" y="0" type="line"/>
      <point x="956" y="0" type="line"/>
      <point x="956" y="246" type="line"/>
      <point x="834" y="246" type="line"/>
      <point x="901" y="348"/>
      <point x="931" y="523"/>
      <point x="931" y="710" type="curve" smooth="yes"/>
      <point x="931" y="1189" type="line" smooth="yes"/>
      <point x="931" y="1447"/>
      <point x="799" y="1607"/>
    </contour>
  </outline>
</glyph>
<glyph name="emdash" format="1">
  <advance width="1166"/>
  <unicode hex="2014"/>
  <outline>
    <contour>
      <point x="67" y="741" type="line"/>
      <point x="67" y="509" type="line"/>
      <point x="1099" y="509" type="line"/>
      <point x="1099" y="741" type="line"/>
    </contour>
  </outline>
</glyph>
<glyph name="quoteleft" format="1">
  <advance width="479"/>
  <unicode hex="2018"/>
  <outline>
    <contour>
      <point x="427" y="1356" type="line"/>
      <point x="300" y="1356" type="line"/>
      <point x="366" y="1592" type="line"/>
      <point x="155" y="1592" type="line"/>
      <point x="53" y="1347" type="line"/>
      <point x="53" y="1058" type="line"/>
      <point x="427" y="1058" type="line"/>
    </contour>
  </outline>
</glyph>
<glyph name="quotesinglbase" format="1">
  <advance width="479"/>
  <unicode hex="201A"/>
  <outline>
    <contour>
      <point x="52" y="0" type="line"/>
      <point x="179" y="0" type="line"/>
      <point x="113" y="-236" type="line"/>
      <point x="324" y="-236" type="line"/>
      <point x="426" y="9" type="line"/>
      <point x="426" y="298" type="line"/>
      <point x="52" y="298" type="line"/>
    </contour>
  </outline>
</glyph>
<glyph name="quotedblleft" format="1">
  <advance width="964"/>
  <unicode hex="201C"/>
  <outline>
    <contour>
      <point x="904" y="1356" type="line"/>
      <point x="777" y="1356" type="line"/>
      <point x="843" y="1592" type="line"/>
      <point x="632" y="1592" type="line"/>
      <point x="530" y="1347" type="line"/>
      <point x="530" y="1058" type="line"/>
      <point x="904" y="1058" type="line"/>
    </contour>
    <contour>
      <point x="435" y="1356" type="line"/>
      <point x="308" y="1356" type="line"/>
      <point x="374" y="1592" type="line"/>
      <point x="163" y="1592" type="line"/>
      <point x="61" y="1347" type="line"/>
      <point x="61" y="1058" type="line"/>
      <point x="435" y="1058" type="line"/>
    </contour>
  </outline>
</glyph>
<glyph name="quotedblright" format="1">
  <advance width="967"/>
  <unicode hex="201D"/>
  <outline>
    <contour>
      <point x="533" y="1294" type="line"/>
      <point x="660" y="1294" type="line"/>
      <point x="594" y="1058" type="line"/>
      <point x="805" y="1058" type="line"/>
      <point x="907" y="1303" type="line"/>
      <point x="907" y="1592" type="line"/>
      <point x="533" y="1592" type="line"/>
    </contour>
    <contour>
      <point x="60" y="1294" type="line"/>
      <point x="187" y="1294" type="line"/>
      <point x="121" y="1058" type="line"/>
      <point x="332" y="1058" type="line"/>
      <point x="434" y="1303" type="line"/>
      <point x="434" y="1592" type="line"/>
      <point x="60" y="1592" type="line"/>
    </contour>
  </outline>
</glyph>
<glyph name="dagger" format="1">
  <advance width="780"/>
  <unicode hex="2020"/>
  <outline>
    <contour>
      <point x="573" y="0" type="line"/>
      <point x="573" y="996" type="line"/>
      <point x="753" y="996" type="line"/>
      <point x="753" y="1292" type="line"/>
      <point x="573" y="1292" type="line"/>
      <point x="573" y="1592" type="line"/>
      <point x="209" y="1592" type="line"/>
      <point x="209" y="1292" type="line"/>
      <point x="26" y="1292" type="line"/>
      <point x="26" y="996" type="line"/>
      <point x="209" y="996" type="line"/>
      <point x="209" y="0" type="line"/>
    </contour>
  </outline>
</glyph>
<glyph name="daggerdbl" format="1">
  <advance width="795"/>
  <unicode hex="2021"/>
  <outline>
    <contour>
      <point x="581" y="1592" type="line"/>
      <point x="581" y="1236" type="line"/>
      <point x="761" y="1236" type="line"/>
      <point x="761" y="940" type="line"/>
      <point x="581" y="940" type="line"/>
      <point x="581" y="646" type="line"/>
      <point x="761" y="646" type="line"/>
      <point x="761" y="350" type="line"/>
      <point x="581" y="350" type="line"/>
      <point x="581" y="0" type="line"/>
      <point x="217" y="0" type="line"/>
      <point x="217" y="350" type="line"/>
      <point x="34" y="350" type="line"/>
      <point x="34" y="646" type="line"/>
      <point x="217" y="646" type="line"/>
      <point x="217" y="940" type="line"/>
      <point x="34" y="940" type="line"/>
      <point x="34" y="1236" type="line"/>
      <point x="217" y="1236" type="line"/>
      <point x="217" y="1592" type="line"/>
    </contour>
  </outline>
</glyph>
<glyph name="bullet" format="1">
  <advance width="725"/>
  <unicode hex="2022"/>
  <outline>
    <contour>
      <point x="49" y="741" type="curve" smooth="yes"/>
      <point x="49" y="534"/>
      <point x="167" y="403"/>
      <point x="362" y="403" type="curve" smooth="yes"/>
      <point x="558" y="403"/>
      <point x="676" y="534"/>
      <point x="676" y="741" type="curve" smooth="yes"/>
      <point x="676" y="948"/>
      <point x="558" y="1079"/>
      <point x="362" y="1079" type="curve" smooth="yes"/>
      <point x="167" y="1079"/>
      <point x="49" y="948"/>
    </contour>
  </outline>
</glyph>
<glyph name="ellipsis" format="1">
  <advance width="1473"/>
  <unicode hex="2026"/>
  <outline>
    <contour>
      <point x="67" y="1" type="line"/>
      <point x="425" y="1" type="line"/>
      <point x="425" y="299" type="line"/>
      <point x="67" y="299" type="line"/>
    </contour>
    <contour>
      <point x="558" y="1" type="line"/>
      <point x="916" y="1" type="line"/>
      <point x="916" y="299" type="line"/>
      <point x="558" y="299" type="line"/>
    </contour>
    <contour>
      <point x="1049" y="1" type="line"/>
      <point x="1407" y="1" type="line"/>
      <point x="1407" y="299" type="line"/>
      <point x="1049" y="299" type="line"/>
    </contour>
  </outline>
</glyph>
<glyph name="perthousand" format="1">
  <advance width="3031"/>
  <unicode hex="2030"/>
  <outline>
    <contour>
      <point x="2604" y="-18" type="curve" smooth="yes"/>
      <point x="2412" y="-18"/>
      <point x="2213" y="99"/>
      <point x="2213" y="402" type="curve" smooth="yes"/>
      <point x="2213" y="765" type="line" smooth="yes"/>
      <point x="2213" y="1047"/>
      <point x="2352" y="1183"/>
      <point x="2604" y="1183" type="curve" smooth="yes"/>
      <point x="2856" y="1183"/>
      <point x="2996" y="1047"/>
      <point x="2996" y="765" type="curve" smooth="yes"/>
      <point x="2996" y="402" type="line" smooth="yes"/>
      <point x="2996" y="99"/>
      <point x="2797" y="-18"/>
    </contour>
    <contour>
      <point x="2604" y="244" type="curve" smooth="yes"/>
      <point x="2643" y="244"/>
      <point x="2697" y="274"/>
      <point x="2697" y="343" type="curve" smooth="yes"/>
      <point x="2697" y="829" type="line" smooth="yes"/>
      <point x="2697" y="884"/>
      <point x="2697" y="956"/>
      <point x="2604" y="956" type="curve" smooth="yes"/>
      <point x="2512" y="956"/>
      <point x="2511" y="884"/>
      <point x="2511" y="829" type="curve" smooth="yes"/>
      <point x="2511" y="343" type="line" smooth="yes"/>
      <point x="2511" y="274"/>
      <point x="2565" y="244"/>
    </contour>
    <contour>
      <point x="990" y="0" type="line"/>
      <point x="1531" y="1767" type="line"/>
      <point x="1207" y="1767" type="line"/>
      <point x="667" y="0" type="line"/>
    </contour>
    <contour>
      <point x="440" y="528" type="curve" smooth="yes"/>
      <point x="248" y="528"/>
      <point x="49" y="645"/>
      <point x="49" y="948" type="curve" smooth="yes"/>
      <point x="49" y="1311" type="line" smooth="yes"/>
      <point x="49" y="1593"/>
      <point x="188" y="1729"/>
      <point x="440" y="1729" type="curve" smooth="yes"/>
      <point x="692" y="1729"/>
      <point x="832" y="1593"/>
      <point x="832" y="1311" type="curve" smooth="yes"/>
      <point x="832" y="948" type="line" smooth="yes"/>
      <point x="832" y="645"/>
      <point x="633" y="528"/>
    </contour>
    <contour>
      <point x="440" y="790" type="curve" smooth="yes"/>
      <point x="479" y="790"/>
      <point x="533" y="820"/>
      <point x="533" y="889" type="curve" smooth="yes"/>
      <point x="533" y="1375" type="line" smooth="yes"/>
      <point x="533" y="1430"/>
      <point x="533" y="1502"/>
      <point x="440" y="1502" type="curve" smooth="yes"/>
      <point x="348" y="1502"/>
      <point x="347" y="1430"/>
      <point x="347" y="1375" type="curve" smooth="yes"/>
      <point x="347" y="889" type="line" smooth="yes"/>
      <point x="347" y="820"/>
      <point x="401" y="790"/>
    </contour>
    <contour>
      <point x="1737" y="-18" type="curve" smooth="yes"/>
      <point x="1545" y="-18"/>
      <point x="1346" y="99"/>
      <point x="1346" y="402" type="curve" smooth="yes"/>
      <point x="1346" y="765" type="line" smooth="yes"/>
      <point x="1346" y="1047"/>
      <point x="1485" y="1183"/>
      <point x="1737" y="1183" type="curve" smooth="yes"/>
      <point x="1989" y="1183"/>
      <point x="2129" y="1047"/>
      <point x="2129" y="765" type="curve" smooth="yes"/>
      <point x="2129" y="402" type="line" smooth="yes"/>
      <point x="2129" y="99"/>
      <point x="1930" y="-18"/>
    </contour>
    <contour>
      <point x="1737" y="244" type="curve" smooth="yes"/>
      <point x="1776" y="244"/>
      <point x="1830" y="274"/>
      <point x="1830" y="343" type="curve" smooth="yes"/>
      <point x="1830" y="829" type="line" smooth="yes"/>
      <point x="1830" y="884"/>
      <point x="1830" y="956"/>
      <point x="1737" y="956" type="curve" smooth="yes"/>
      <point x="1645" y="956"/>
      <point x="1644" y="884"/>
      <point x="1644" y="829" type="curve" smooth="yes"/>
      <point x="1644" y="343" type="line" smooth="yes"/>
      <point x="1644" y="274"/>
      <point x="1698" y="244"/>
    </contour>
  </outline>
</glyph>
<glyph name="guilsinglleft" format="1">
  <advance width="594"/>
  <unicode hex="2039"/>
  <outline>
    <contour>
      <point x="18" y="545" type="line"/>
      <point x="18" y="959" type="line"/>
      <point x="528" y="1230" type="line"/>
      <point x="528" y="871" type="line"/>
      <point x="216" y="749" type="line"/>
      <point x="528" y="618" type="line"/>
      <point x="528" y="260" type="line"/>
    </contour>
  </outline>
</glyph>
<glyph name="guilsinglright" format="1">
  <advance width="595"/>
  <unicode hex="203A"/>
  <outline>
    <contour>
      <point x="577" y="545" type="line"/>
      <point x="577" y="959" type="line"/>
      <point x="67" y="1230" type="line"/>
      <point x="67" y="871" type="line"/>
      <point x="379" y="749" type="line"/>
      <point x="67" y="618" type="line"/>
      <point x="67" y="260" type="line"/>
    </contour>
  </outline>
</glyph>
<glyph name="fraction" format="1">
  <advance width="812"/>
  <unicode hex="2044"/>
  <outline>
    <contour>
      <point x="302" y="0" type="line"/>
      <point x="793" y="1767" type="line"/>
      <point x="509" y="1767" type="line"/>
      <point x="19" y="0" type="line"/>
    </contour>
  </outline>
</glyph>
<glyph name="foursuperior" format="1">
  <advance width="630"/>
  <unicode hex="2074"/>
  <outline>
    <contour>
      <point x="576" y="973" type="line"/>
      <point x="537" y="973" type="line"/>
      <point x="537" y="1592" type="line"/>
      <point x="214" y="1592" type="line"/>
      <point x="27" y="951" type="line"/>
      <point x="27" y="802" type="line"/>
      <point x="330" y="802" type="line"/>
      <point x="330" y="650" type="line"/>
      <point x="537" y="650" type="line"/>
      <point x="537" y="802" type="line"/>
      <point x="576" y="802" type="line"/>
    </contour>
    <contour>
      <point x="220" y="973" type="line"/>
      <point x="330" y="1378" type="line"/>
      <point x="330" y="973" type="line"/>
    </contour>
  </outline>
</glyph>
<glyph name="trademark" format="1">
  <advance width="1857"/>
  <unicode hex="2122"/>
  <outline>
    <contour>
      <point x="57" y="1593" type="line"/>
      <point x="57" y="1361" type="line"/>
      <point x="215" y="1361" type="line"/>
      <point x="215" y="386" type="line"/>
      <point x="482" y="386" type="line"/>
      <point x="482" y="1361" type="line"/>
      <point x="641" y="1361" type="line"/>
      <point x="641" y="1593" type="line"/>
    </contour>
    <contour>
      <point x="1393" y="386" type="line"/>
      <point x="1153" y="386" type="line"/>
      <point x="1006" y="1257" type="line"/>
      <point x="1006" y="386" type="line"/>
      <point x="750" y="386" type="line"/>
      <point x="750" y="1593" type="line"/>
      <point x="1156" y="1593" type="line"/>
      <point x="1269" y="963" type="line"/>
      <point x="1381" y="1593" type="line"/>
      <point x="1790" y="1593" type="line"/>
      <point x="1790" y="386" type="line"/>
      <point x="1531" y="386" type="line"/>
      <point x="1531" y="1257" type="line"/>
    </contour>
  </outline>
</glyph>
<glyph name="partialdiff" format="1">
  <advance width="1087"/>
  <unicode hex="2202"/>
  <outline>
    <contour>
      <point x="288" y="1376" type="line"/>
      <point x="325" y="1391"/>
      <point x="417" y="1415"/>
      <point x="512" y="1415" type="curve" smooth="yes"/>
      <point x="587" y="1415"/>
      <point x="670" y="1364"/>
      <point x="670" y="1164" type="curve" smooth="yes"/>
      <point x="670" y="1130"/>
      <point x="666" y="1091"/>
      <point x="659" y="1047" type="curve"/>
      <point x="582" y="1073"/>
      <point x="512" y="1086"/>
      <point x="450" y="1086" type="curve" smooth="yes"/>
      <point x="108" y="1086"/>
      <point x="42" y="663"/>
      <point x="42" y="413" type="curve" smooth="yes"/>
      <point x="42" y="168"/>
      <point x="126" y="-21"/>
      <point x="451" y="-21" type="curve" smooth="yes"/>
      <point x="876" y="-21"/>
      <point x="952" y="236"/>
      <point x="985" y="567" type="curve" smooth="yes"/>
      <point x="1032" y="1034"/>
      <point x="1035" y="1099"/>
      <point x="1035" y="1159" type="curve" smooth="yes"/>
      <point x="1035" y="1485"/>
      <point x="927" y="1681"/>
      <point x="624" y="1681" type="curve" smooth="yes"/>
      <point x="519" y="1681"/>
      <point x="390" y="1657"/>
      <point x="234" y="1607" type="curve"/>
    </contour>
    <contour>
      <point x="596" y="419" type="line" smooth="yes"/>
      <point x="588" y="328"/>
      <point x="545" y="293"/>
      <point x="495" y="293" type="curve" smooth="yes"/>
      <point x="435" y="293"/>
      <point x="422" y="337"/>
      <point x="422" y="391" type="curve" smooth="yes"/>
      <point x="422" y="418"/>
      <point x="425" y="448"/>
      <point x="428" y="475" type="curve" smooth="yes"/>
      <point x="445" y="645" type="line" smooth="yes"/>
      <point x="456" y="752"/>
      <point x="492" y="794"/>
      <point x="539" y="794" type="curve" smooth="yes"/>
      <point x="565" y="794"/>
      <point x="596" y="781"/>
      <point x="627" y="759" type="curve"/>
    </contour>
  </outline>
</glyph>
<glyph name="product" format="1">
  <advance width="1020"/>
  <unicode hex="220F"/>
  <outline>
    <contour>
      <point x="940" y="1593" type="line"/>
      <point x="940" y="0" type="line"/>
      <point x="590" y="0" type="line"/>
      <point x="590" y="1292" type="line"/>
      <point x="424" y="1292" type="line"/>
      <point x="424" y="0" type="line"/>
      <point x="74" y="0" type="line"/>
      <point x="74" y="1593" type="line"/>
    </contour>
  </outline>
</glyph>
<glyph name="summation" format="1">
  <advance width="954"/>
  <unicode hex="2211"/>
  <outline>
    <contour>
      <point x="282" y="751" type="line"/>
      <point x="72" y="272" type="line"/>
      <point x="72" y="0" type="line"/>
      <point x="836" y="0" type="line"/>
      <point x="836" y="301" type="line"/>
      <point x="444" y="301" type="line"/>
      <point x="657" y="751" type="line"/>
      <point x="444" y="1200" type="line"/>
      <point x="836" y="1200" type="line"/>
      <point x="836" y="1501" type="line"/>
      <point x="72" y="1501" type="line"/>
      <point x="72" y="1229" type="line"/>
    </contour>
  </outline>
</glyph>
<glyph name="radical" format="1">
  <advance width="1010"/>
  <unicode hex="221A"/>
  <outline>
    <contour>
      <point x="596" y="1501" type="line"/>
      <point x="1427" y="1501" type="line"/>
      <point x="1427" y="1269" type="line"/>
      <point x="903" y="1269" type="line"/>
      <point x="697" y="0" type="line"/>
      <point x="293" y="0" type="line"/>
      <point x="74" y="741" type="line"/>
      <point x="343" y="741" type="line"/>
      <point x="457" y="338" type="line"/>
      <point x="594" y="1500" type="line"/>
    </contour>
  </outline>
</glyph>
<glyph name="infinity" format="1">
  <advance width="1189"/>
  <unicode hex="221E"/>
  <outline>
    <contour>
      <point x="587" y="885" type="curve"/>
      <point x="641" y="952"/>
      <point x="732" y="1041"/>
      <point x="860" y="1041" type="curve" smooth="yes"/>
      <point x="949" y="1041"/>
      <point x="1129" y="1002"/>
      <point x="1130" y="744" type="curve" smooth="yes"/>
      <point x="1131" y="479"/>
      <point x="949" y="439"/>
      <point x="860" y="439" type="curve" smooth="yes"/>
      <point x="733" y="439"/>
      <point x="640" y="517"/>
      <point x="587" y="585" type="curve"/>
      <point x="531" y="522"/>
      <point x="430" y="452"/>
      <point x="318" y="452" type="curve" smooth="yes"/>
      <point x="230" y="452"/>
      <point x="55" y="488"/>
      <point x="56" y="744" type="curve" smooth="yes"/>
      <point x="57" y="992"/>
      <point x="230" y="1028"/>
      <point x="318" y="1028" type="curve" smooth="yes"/>
      <point x="421" y="1028"/>
      <point x="515" y="966"/>
    </contour>
    <contour>
      <point x="801" y="669" type="curve" smooth="yes"/>
      <point x="824" y="669"/>
      <point x="896" y="671"/>
      <point x="896" y="740" type="curve" smooth="yes"/>
      <point x="896" y="809"/>
      <point x="824" y="811"/>
      <point x="801" y="811" type="curve" smooth="yes"/>
      <point x="736" y="811"/>
      <point x="679" y="768"/>
      <point x="649" y="740" type="curve"/>
      <point x="682" y="707"/>
      <point x="739" y="669"/>
    </contour>
    <contour>
      <point x="525" y="740" type="curve"/>
      <point x="494" y="770"/>
      <point x="439" y="810"/>
      <point x="381" y="810" type="curve" smooth="yes"/>
      <point x="360" y="810"/>
      <point x="292" y="808"/>
      <point x="292" y="740" type="curve" smooth="yes"/>
      <point x="292" y="672"/>
      <point x="359" y="669"/>
      <point x="381" y="669" type="curve" smooth="yes"/>
      <point x="440" y="669"/>
      <point x="497" y="713"/>
    </contour>
  </outline>
</glyph>
<glyph name="integral" format="1">
  <advance width="627"/>
  <unicode hex="222B"/>
  <outline>
    <contour>
      <point x="486" y="195" type="curve" smooth="yes"/>
      <point x="486" y="1281" type="line" smooth="yes"/>
      <point x="486" y="1330"/>
      <point x="492" y="1362"/>
      <point x="541" y="1362" type="curve" smooth="yes"/>
      <point x="553" y="1362"/>
      <point x="567" y="1360"/>
      <point x="584" y="1357" type="curve"/>
      <point x="584" y="1578" type="line"/>
      <point x="584" y="1578"/>
      <point x="507" y="1607"/>
      <point x="380" y="1607" type="curve" smooth="yes"/>
      <point x="179" y="1607"/>
      <point x="139" y="1493"/>
      <point x="138" y="1365" type="curve" smooth="yes"/>
      <point x="138" y="1364"/>
      <point x="138" y="279"/>
      <point x="138" y="279" type="curve" smooth="yes"/>
      <point x="138" y="230"/>
      <point x="139" y="198"/>
      <point x="90" y="198" type="curve" smooth="yes"/>
      <point x="78" y="198"/>
      <point x="64" y="200"/>
      <point x="47" y="203" type="curve"/>
      <point x="47" y="-18" type="line"/>
      <point x="47" y="-18"/>
      <point x="124" y="-47"/>
      <point x="251" y="-47" type="curve" smooth="yes"/>
      <point x="452" y="-47"/>
      <point x="486" y="78"/>
    </contour>
  </outline>
</glyph>
<glyph name="lessequal" format="1">
  <advance width="487"/>
  <unicode hex="2264"/>
  <outline>
    <contour>
      <point x="-41" y="637" type="line"/>
      <point x="-41" y="1051" type="line"/>
      <point x="529" y="1392" type="line"/>
      <point x="529" y="1033" type="line"/>
      <point x="187" y="841" type="line"/>
      <point x="529" y="650" type="line"/>
      <point x="529" y="292" type="line"/>
    </contour>
    <contour>
      <point x="-14" y="0" type="line"/>
      <point x="502" y="0" type="line"/>
      <point x="502" y="232" type="line"/>
      <point x="-14" y="232" type="line"/>
    </contour>
  </outline>
</glyph>
<glyph name="lozenge" format="1">
  <advance width="1051"/>
  <unicode hex="25CA"/>
  <outline>
    <contour>
      <point x="372" y="713" type="line"/>
      <point x="506" y="1247" type="line"/>
      <point x="538" y="1247" type="line"/>
      <point x="672" y="713" type="line"/>
      <point x="538" y="179" type="line"/>
      <point x="506" y="179" type="line"/>
    </contour>
    <contour>
      <point x="97" y="713" type="line"/>
      <point x="280" y="0" type="line"/>
      <point x="771" y="0" type="line"/>
      <point x="950" y="713" type="line"/>
      <point x="771" y="1436" type="line"/>
      <point x="280" y="1436" type="line"/>
    </contour>
  </outline>
</glyph>
